<svg width="8" height="10" viewBox="0 0 8 10" fill="none" xmlns="http://www.w3.org/2000/svg">
<path d="M5.00065 5.00065C6.28732 5.00065 7.33398 3.95398 7.33398 2.66732C7.33398 1.38065 6.28732 0.333984 5.00065 0.333984C3.71398 0.333984 2.66732 1.38065 2.66732 2.66732C2.66732 3.95398 3.71398 5.00065 5.00065 5.00065ZM5.00065 1.66732C5.55398 1.66732 6.00065 2.11398 6.00065 2.66732C6.00065 3.22065 5.55398 3.66732 5.00065 3.66732C4.44732 3.66732 4.00065 3.22065 4.00065 2.66732C4.00065 2.11398 4.44732 1.66732 5.00065 1.66732ZM5.03398 8.33398H2.18065C2.84065 8.00065 3.98065 7.66732 5.00065 7.66732C5.07398 7.66732 5.15398 7.67398 5.22732 7.67398C5.45398 7.18732 5.84732 6.78732 6.32065 6.46732C5.83398 6.38065 5.37398 6.33398 5.00065 6.33398C3.44065 6.33398 0.333984 7.11398 0.333984 8.66732V9.66732H5.00065V8.66732C5.00065 8.55398 5.01398 8.44065 5.03398 8.33398Z" fill="#FEFEFE"/>
</svg>
