<svg width="21" height="21" viewBox="0 0 21 21" fill="none" xmlns="http://www.w3.org/2000/svg">
<path fill-rule="evenodd" clip-rule="evenodd" d="M10.5002 0.083252C4.75016 0.083252 0.0834961 4.74992 0.0834961 10.4999C0.0834961 16.2499 4.75016 20.9166 10.5002 20.9166C16.2502 20.9166 20.9168 16.2499 20.9168 10.4999C20.9168 4.74992 16.2502 0.083252 10.5002 0.083252ZM5.36475 17.0416C5.81266 16.1041 8.54183 15.1874 10.5002 15.1874C12.4585 15.1874 15.1981 16.1041 15.6356 17.0416C14.2189 18.1666 12.4377 18.8333 10.5002 18.8333C8.56266 18.8333 6.78141 18.1666 5.36475 17.0416ZM10.5002 13.1041C12.021 13.1041 15.6356 13.7187 17.1252 15.5312C18.1877 14.1353 18.8335 12.3958 18.8335 10.4999C18.8335 5.90617 15.0939 2.16659 10.5002 2.16659C5.90641 2.16659 2.16683 5.90617 2.16683 10.4999C2.16683 12.3958 2.81266 14.1353 3.87516 15.5312C5.36475 13.7187 8.97933 13.1041 10.5002 13.1041ZM10.5002 4.24992C8.47933 4.24992 6.85433 5.87492 6.85433 7.89575C6.85433 9.91658 8.47933 11.5416 10.5002 11.5416C12.521 11.5416 14.146 9.91658 14.146 7.89575C14.146 5.87492 12.521 4.24992 10.5002 4.24992ZM8.93766 7.89575C8.93766 8.76033 9.63558 9.45825 10.5002 9.45825C11.3647 9.45825 12.0627 8.76033 12.0627 7.89575C12.0627 7.03117 11.3647 6.33325 10.5002 6.33325C9.63558 6.33325 8.93766 7.03117 8.93766 7.89575Z" fill="#BDBDBD"/>
</svg>
