<svg width="14" height="14" viewBox="0 0 14 14" fill="none" xmlns="http://www.w3.org/2000/svg">
<path d="M7.33333 5.66651C7.33333 4.56651 6.43333 3.66651 5.33333 3.66651C4.23333 3.66651 3.33333 4.56651 3.33333 5.66651C3.33333 6.76651 4.23333 7.66651 5.33333 7.66651C6.43333 7.66651 7.33333 6.76651 7.33333 5.66651ZM5.33333 6.33318C4.96666 6.33318 4.66666 6.03318 4.66666 5.66651C4.66666 5.29984 4.96666 4.99984 5.33333 4.99984C5.69999 4.99984 5.99999 5.29984 5.99999 5.66651C5.99999 6.03318 5.69999 6.33318 5.33333 6.33318ZM6.99333 0.339844C3.31333 0.339844 0.32666 3.32651 0.32666 7.00651C0.32666 10.6865 3.31333 13.6732 6.99333 13.6732C10.6733 13.6732 13.66 10.6865 13.66 7.00651C13.66 3.32651 10.6733 0.339844 6.99333 0.339844ZM2.89333 10.4132C3.34666 10.0532 4.40666 9.67318 5.33333 9.67318C5.37999 9.67318 5.43333 9.67984 5.48666 9.67984C5.64666 9.25318 5.93333 8.81984 6.35333 8.43984C5.97999 8.37318 5.62666 8.33318 5.33333 8.33318C4.46666 8.33318 3.07333 8.63318 2.17999 9.28651C1.84666 8.59318 1.65999 7.81984 1.65999 6.99984C1.65999 4.05984 4.05333 1.66651 6.99333 1.66651C9.93333 1.66651 12.3267 4.05984 12.3267 6.99984C12.3267 7.79984 12.1467 8.55984 11.8267 9.24651C11.555 9.67318 11.5 10 11 10.5C10.5 11 10 11.5 8.5 12L6.66666 12.3198C5.15333 12.2332 3.80666 11.5132 2.89333 10.4132Z" fill="white"/>
</svg>
