<svg width="240" height="45" viewBox="0 0 240 45" fill="none" xmlns="http://www.w3.org/2000/svg">
<path fill-rule="evenodd" clip-rule="evenodd" d="M240 0.152896C239.348 0.0522295 238.68 0 238 0H15C7.8203 0 2 5.8203 2 13V32C2 39.1797 7.8203 45 15 45H238C238.68 45 239.348 44.9478 240 44.8471V44.2396C239.349 44.3451 238.681 44.4 238 44.4H15C8.15167 44.4 2.6 38.8483 2.6 32V13C2.6 6.15167 8.15167 0.6 15 0.6H238C238.681 0.6 239.349 0.654877 240 0.76045V0.152896Z" fill="#27AE60"/>
<path fill-rule="evenodd" clip-rule="evenodd" d="M17 0H0V45H17C9.82029 45 4 39.1797 4 32V13C4 5.8203 9.8203 0 17 0Z" fill="#27AE60"/>
</svg>
