<svg width="12" height="12" viewBox="0 0 12 12" fill="none" xmlns="http://www.w3.org/2000/svg">
<path d="M11.25 3.24667V1.91667C11.25 1.275 10.725 0.75 10.0833 0.75H1.91667C1.26917 0.75 0.75 1.275 0.75 1.91667V10.0833C0.75 10.725 1.26917 11.25 1.91667 11.25H10.0833C10.725 11.25 11.25 10.725 11.25 10.0833V8.75333C11.5942 8.54917 11.8333 8.18167 11.8333 7.75V4.25C11.8333 3.81833 11.5942 3.45083 11.25 3.24667ZM10.6667 4.25V7.75H6.58333V4.25H10.6667ZM1.91667 10.0833V1.91667H10.0833V3.08333H6.58333C5.94167 3.08333 5.41667 3.60833 5.41667 4.25V7.75C5.41667 8.39167 5.94167 8.91667 6.58333 8.91667H10.0833V10.0833H1.91667Z" fill="#FEFEFE"/>
</svg>
