<svg width="14" height="14" viewBox="0 0 14 14" fill="none" xmlns="http://www.w3.org/2000/svg">
<path d="M7.58342 6.50412H4.08341M1.16675 6.50412V3.80912C1.16675 2.61912 2.12925 1.65662 3.31925 1.65662H6.59758C7.78758 1.65662 8.75008 2.39745 8.75008 3.58745" stroke="white" stroke-width="1.2" stroke-linecap="round" stroke-linejoin="round"/>
<path d="M10.1967 7.11669C9.90508 7.39669 9.76508 7.82836 9.88175 8.27169C10.0276 8.81419 10.5642 9.15836 11.1242 9.15836H11.6667V10.0042C11.6667 11.2934 10.6226 12.3375 9.33341 12.3375H3.50008C2.21091 12.3375 1.16675 11.2934 1.16675 10.0042V5.92086C1.16675 4.63169 2.21091 3.58752 3.50008 3.58752H9.33341C10.6167 3.58752 11.6667 4.63752 11.6667 5.92086V6.76669H11.0367C10.7101 6.76669 10.4126 6.89502 10.1967 7.11669Z" stroke="white" stroke-width="1.2" stroke-linecap="round" stroke-linejoin="round"/>
<path d="M12.8333 7.36172V8.56339C12.8333 8.89006 12.565 9.15839 12.2325 9.15839H11.1066C10.4766 9.15839 9.89913 8.69756 9.84663 8.06756C9.81163 7.70006 9.95163 7.35589 10.1966 7.11672C10.4125 6.89506 10.71 6.76672 11.0366 6.76672H12.2325C12.565 6.76672 12.8333 7.03506 12.8333 7.36172Z" stroke="white" stroke-width="1.2" stroke-linecap="round" stroke-linejoin="round"/>
</svg>
