<svg width="20" height="21" viewBox="0 0 20 21" fill="none" xmlns="http://www.w3.org/2000/svg">
<path d="M19.1667 17.3333H0.833374V15.5H1.75004V9.11175C1.75004 4.53942 5.44421 0.833336 10 0.833336C14.5559 0.833336 18.25 4.53942 18.25 9.11175V15.5H19.1667V17.3333ZM3.58337 15.5H16.4167V9.11175C16.4167 5.55234 13.5439 2.66667 10 2.66667C6.45621 2.66667 3.58337 5.55234 3.58337 9.11175V15.5ZM7.70837 18.25H12.2917C12.2917 18.8578 12.0503 19.4407 11.6205 19.8705C11.1907 20.3002 10.6078 20.5417 10 20.5417C9.39225 20.5417 8.80936 20.3002 8.37959 19.8705C7.94982 19.4407 7.70837 18.8578 7.70837 18.25Z" fill="#002841"/>
</svg>
