<svg width="17" height="21" viewBox="0 0 17 21" fill="none" xmlns="http://www.w3.org/2000/svg">
<path fill-rule="evenodd" clip-rule="evenodd" d="M14.7503 14.666V9.45768C14.7503 6.25977 13.0524 3.58268 10.0628 2.87435V2.16602C10.0628 1.30143 9.36491 0.603516 8.50033 0.603516C7.63574 0.603516 6.93783 1.30143 6.93783 2.16602V2.87435C3.95866 3.58268 2.25033 6.24935 2.25033 9.45768V14.666L0.166992 16.7493V17.791H16.8337V16.7493L14.7503 14.666ZM8.50033 20.9154C9.64616 20.9154 10.5837 19.9779 10.5837 18.832H6.41699C6.41699 19.9779 7.35449 20.9154 8.50033 20.9154ZM4.33398 15.707H12.6673V9.45703C12.6673 6.8737 11.0944 4.76953 8.50065 4.76953C5.9069 4.76953 4.33398 6.8737 4.33398 9.45703V15.707Z" fill="#BDBDBD"/>
</svg>
