<svg width="13" height="13" viewBox="0 0 13 13" fill="none" xmlns="http://www.w3.org/2000/svg">
<path d="M11.5 12.75H1.5C1.33424 12.75 1.17527 12.6842 1.05806 12.5669C0.940848 12.4497 0.875 12.2908 0.875 12.125V0.875C0.875 0.70924 0.940848 0.550268 1.05806 0.433058C1.17527 0.315848 1.33424 0.25 1.5 0.25H11.5C11.6658 0.25 11.8247 0.315848 11.9419 0.433058C12.0592 0.550268 12.125 0.70924 12.125 0.875V12.125C12.125 12.2908 12.0592 12.4497 11.9419 12.5669C11.8247 12.6842 11.6658 12.75 11.5 12.75ZM10.875 11.5V1.5H2.125V11.5H10.875ZM4 4.625H9V5.875H4V4.625ZM4 7.125H9V8.375H4V7.125Z" fill="#FEFEFE"/>
</svg>
