<svg width="16" height="16" viewBox="0 0 16 16" fill="none" xmlns="http://www.w3.org/2000/svg">
<path d="M8 14.6663C4.318 14.6663 1.33334 11.6817 1.33334 7.99967C1.33334 4.31767 4.318 1.33301 8 1.33301C11.682 1.33301 14.6667 4.31767 14.6667 7.99967C14.6667 11.6817 11.682 14.6663 8 14.6663ZM8 13.333C9.41449 13.333 10.771 12.7711 11.7712 11.7709C12.7714 10.7707 13.3333 9.41416 13.3333 7.99967C13.3333 6.58519 12.7714 5.22863 11.7712 4.22844C10.771 3.22824 9.41449 2.66634 8 2.66634C6.58551 2.66634 5.22896 3.22824 4.22877 4.22844C3.22857 5.22863 2.66667 6.58519 2.66667 7.99967C2.66667 9.41416 3.22857 10.7707 4.22877 11.7709C5.22896 12.7711 6.58551 13.333 8 13.333ZM11.2607 5.68167L5.682 11.2603C5.31759 11.0007 4.999 10.6821 4.73934 10.3177L10.318 4.73901C10.6824 4.99867 11.001 5.31726 11.2607 5.68167Z" fill="white"/>
</svg>
