<svg width="14" height="14" viewBox="0 0 14 14" fill="none" xmlns="http://www.w3.org/2000/svg">
<path d="M6.99967 13.6673C3.31767 13.6673 0.333008 10.6827 0.333008 7.00065C0.333008 3.31865 3.31767 0.333984 6.99967 0.333984C10.6817 0.333984 13.6663 3.31865 13.6663 7.00065C13.6663 10.6827 10.6817 13.6673 6.99967 13.6673ZM6.99967 12.334C8.41416 12.334 9.77072 11.7721 10.7709 10.7719C11.7711 9.77169 12.333 8.41514 12.333 7.00065C12.333 5.58616 11.7711 4.22961 10.7709 3.22941C9.77072 2.22922 8.41416 1.66732 6.99967 1.66732C5.58519 1.66732 4.22863 2.22922 3.22844 3.22941C2.22824 4.22961 1.66634 5.58616 1.66634 7.00065C1.66634 8.41514 2.22824 9.77169 3.22844 10.7719C4.22863 11.7721 5.58519 12.334 6.99967 12.334ZM10.2603 4.68265L4.68167 10.2613C4.31726 10.0017 3.99867 9.68307 3.73901 9.31865L9.31767 3.73998C9.68209 3.99965 10.0007 4.31823 10.2603 4.68265Z" fill="white"/>
</svg>
