<svg width="13" height="13" viewBox="0 0 13 13" fill="none" xmlns="http://www.w3.org/2000/svg">
<g clip-path="url(#clip0_1452_8374)">
<path d="M12.4577 3.79102V9.74935C12.4577 10.3452 11.9702 10.8327 11.3743 10.8327H2.16602C2.16602 10.291 2.16602 10.3452 2.16602 9.74935H11.3743V3.79102C11.9702 3.79102 11.916 3.79102 12.4577 3.79102Z" fill="#FEFEFE"/>
<path d="M-0.00127983 2L-0.000650406 7.5C-0.000650406 8.09583 0.486851 8.58333 1.08268 8.58333H10.291C10.291 8.04167 10.291 8.09583 10.291 7.5H1.08268L1.08205 2C0.486221 2 0.540387 2 -0.00127983 2Z" fill="#FEFEFE"/>
<path d="M11.3215 8.7148L12.4609 8.7149L12.5001 3.70731L11.5986 2.00098L8.44439 5.15523L9.07524 5.78608L11.3607 3.70721L11.3215 8.7148Z" fill="#FEFEFE"/>
<path d="M1.06525 6.71284L-0.0741664 6.71294L-0.11338 1.70536L0.788081 -0.000971435L3.94233 3.15328L3.31148 3.78413L1.06525 1.70536L1.06525 6.71284Z" fill="#FEFEFE"/>
<path d="M4 4.625C4 3.72583 4.72583 3 5.625 3C6.52417 3 7.25 3.72583 7.25 4.625C7.25 5.52417 6.52417 6.25 5.625 6.25C4.72583 6.25 4 5.52417 4 4.625Z" fill="#FEFEFE"/>
</g>
<defs>
<clipPath id="clip0_1452_8374">
<rect width="13" height="13" fill="white"/>
</clipPath>
</defs>
</svg>
