<svg width="16" height="16" viewBox="0 0 16 16" fill="none" xmlns="http://www.w3.org/2000/svg">
<path d="M7.34675 12.9987H5.00008C4.58675 12.9987 4.22008 12.9854 3.89341 12.9387C2.14008 12.7454 1.66675 11.9187 1.66675 9.66536V6.33203C1.66675 4.0787 2.14008 3.25203 3.89341 3.0587C4.22008 3.01203 4.58675 2.9987 5.00008 2.9987H7.30675M10.0134 2.9987H11.0001C11.4134 2.9987 11.7801 3.01203 12.1067 3.0587C13.8601 3.25203 14.3334 4.0787 14.3334 6.33203V9.66536C14.3334 11.9187 13.8601 12.7454 12.1067 12.9387C11.7801 12.9854 11.4134 12.9987 11.0001 12.9987H10.0134M10.0001 1.33203V14.6654M5.33341 5.66536V10.332" stroke="#27AE60" stroke-width="1.2" stroke-linecap="round" stroke-linejoin="round"/>
</svg>
