<svg width="16" height="16" viewBox="0 0 16 16" fill="none" xmlns="http://www.w3.org/2000/svg">
<path d="M7.34663 13.0007H4.99996C4.58663 13.0007 4.21996 12.9873 3.89329 12.9407C2.13996 12.7473 1.66663 11.9207 1.66663 9.66732V6.33398C1.66663 4.08065 2.13996 3.25398 3.89329 3.06065C4.21996 3.01398 4.58663 3.00065 4.99996 3.00065H7.30663M10.0133 3.00065H11C11.4133 3.00065 11.78 3.01398 12.1066 3.06065C13.86 3.25398 14.3333 4.08065 14.3333 6.33398V9.66732C14.3333 11.9207 13.86 12.7473 12.1066 12.9407C11.78 12.9873 11.4133 13.0007 11 13.0007H10.0133M9.99996 1.33398V14.6673M5.33329 5.66732V10.334" stroke="white" stroke-width="1.2" stroke-linecap="round" stroke-linejoin="round"/>
</svg>
