<svg width="20" height="20" viewBox="0 0 20 20" fill="none" xmlns="http://www.w3.org/2000/svg">
<path d="M10 20C4.48645 20 0 15.5143 0 10C0 4.48645 4.48645 0 10 0C15.5143 0 20 4.48645 20 10C20 15.5143 15.5143 20 10 20ZM10 1.54918C5.34004 1.54918 1.54918 5.34004 1.54918 10C1.54918 14.66 5.34004 18.4508 10 18.4508C14.66 18.4508 18.4508 14.6592 18.4508 10C18.4508 5.34004 14.66 1.54918 10 1.54918Z" fill="#219653"/>
<path d="M13.0001 7.5L12.2951 6.795L9.12508 9.965L9.83008 10.67L13.0001 7.5ZM15.1201 6.795L9.83008 12.085L7.74008 10L7.03508 10.705L9.83008 13.5L15.8301 7.5L15.1201 6.795ZM4.20508 10.705L7.00008 13.5L7.70508 12.795L4.91508 10L4.20508 10.705Z" fill="#219653"/>
</svg>
