<svg width="20" height="14" viewBox="0 0 20 14" fill="none" xmlns="http://www.w3.org/2000/svg">
<path d="M16.126 5.36732C15.5593 2.49232 13.0343 0.333984 10.001 0.333984C7.59264 0.333984 5.50098 1.70065 4.45931 3.70065C1.95098 3.96732 0.000976562 6.09232 0.000976562 8.66732C0.000976562 11.4257 2.24264 13.6673 5.00098 13.6673H15.8343C18.1343 13.6673 20.001 11.8007 20.001 9.50065C20.001 7.30065 18.2926 5.51732 16.126 5.36732ZM15.8343 12.0007H5.00098C3.15931 12.0007 1.66764 10.509 1.66764 8.66732C1.66764 6.95898 2.94264 5.53398 4.63431 5.35898L5.52598 5.26732L5.94264 4.47565C6.73431 2.95065 8.28431 2.00065 10.001 2.00065C12.1843 2.00065 14.0676 3.55065 14.4926 5.69232L14.7426 6.94232L16.0176 7.03398C17.3176 7.11732 18.3343 8.20898 18.3343 9.50065C18.3343 10.8757 17.2093 12.0007 15.8343 12.0007ZM6.66764 7.83398H8.79264V10.334H11.2093V7.83398H13.3343L10.001 4.50065L6.66764 7.83398Z" fill="#4F4F4F"/>
</svg>
