<svg width="16" height="16" viewBox="0 0 16 16" fill="none" xmlns="http://www.w3.org/2000/svg">
<g clip-path="url(#clip0_1683_12686)">
<path d="M14.5168 6.73623V6.25338L14.1754 6.5948L13.3333 7.43691L13.2747 7.49549V7.57833V10.9468C13.2747 11.7665 12.6102 12.431 11.7905 12.431H5.05366C4.23395 12.431 3.56945 11.7665 3.56945 10.9468V4.20991C3.56945 3.3902 4.23395 2.7257 5.05366 2.7257H8.42208H8.50492L8.5635 2.66712L9.40561 1.82502L9.74703 1.48359H9.26419H4.21155C3.17093 1.48359 2.32734 2.32718 2.32734 3.3678V11.7889C2.32734 12.8295 3.17093 13.6731 4.21155 13.6731H12.6326C13.6732 13.6731 14.5168 12.8295 14.5168 11.7889V6.73623Z" fill="#2F80ED" stroke="#2F80ED" stroke-width="0.4"/>
<path d="M15.9992 0H11.7887L13.3044 1.51579L7.57812 7.24211L8.75707 8.42105L14.4834 2.69474L15.9992 4.21053V0Z" fill="#2F80ED"/>
</g>
<defs>
<clipPath id="clip0_1683_12686">
<rect width="16" height="16" fill="white"/>
</clipPath>
</defs>
</svg>
