<svg width="14" height="14" viewBox="0 0 14 14" fill="none" xmlns="http://www.w3.org/2000/svg">
<path d="M9.5725 2.33335C10.7042 2.33335 11.6142 3.24918 11.6142 4.37501C11.6142 5.47751 10.7392 6.37585 9.64834 6.41668C9.59795 6.41085 9.54706 6.41085 9.49667 6.41668M10.6983 11.6667C11.1183 11.5792 11.515 11.41 11.8417 11.1592C12.7517 10.4767 12.7517 9.35085 11.8417 8.66835C11.5208 8.42335 11.13 8.26001 10.7158 8.16668M5.34334 6.34085C5.285 6.33501 5.215 6.33501 5.15084 6.34085C4.48129 6.31811 3.84688 6.03567 3.38195 5.55332C2.91703 5.07098 2.6581 4.42661 2.66 3.75668C2.66 2.32751 3.815 1.16668 5.25 1.16668C5.93614 1.1543 6.59909 1.415 7.09302 1.89142C7.58694 2.36784 7.87138 3.02096 7.88375 3.7071C7.89613 4.39323 7.63543 5.05619 7.15901 5.55011C6.68259 6.04403 6.02947 6.32847 5.34334 6.34085ZM2.42667 8.49335C1.015 9.43835 1.015 10.9783 2.42667 11.9175C4.03084 12.9908 6.66167 12.9908 8.26584 11.9175C9.6775 10.9725 9.6775 9.43251 8.26584 8.49335C6.6675 7.42585 4.03667 7.42585 2.42667 8.49335Z" stroke="white" stroke-width="1.2" stroke-linecap="round" stroke-linejoin="round"/>
</svg>
