<svg width="16" height="16" viewBox="0 0 16 16" fill="none" xmlns="http://www.w3.org/2000/svg">
<g clip-path="url(#clip0_4791_22799)">
<path d="M8.33284 6.66651C8.33284 5.56651 7.43284 4.66651 6.33284 4.66651C5.23284 4.66651 4.33284 5.56651 4.33284 6.66651C4.33284 7.76651 5.23284 8.66651 6.33284 8.66651C7.43284 8.66651 8.33284 7.76651 8.33284 6.66651ZM6.33284 7.33318C5.96617 7.33318 5.66617 7.03318 5.66617 6.66651C5.66617 6.29984 5.96617 5.99984 6.33284 5.99984C6.6995 5.99984 6.99951 6.29984 6.99951 6.66651C6.99951 7.03318 6.6995 7.33318 6.33284 7.33318ZM10.6662 8.66651C11.4062 8.66651 11.9995 8.07318 11.9995 7.33318C11.9995 6.59318 11.4062 5.99984 10.6662 5.99984C9.92617 5.99984 9.32617 6.59318 9.33284 7.33318C9.33284 8.07318 9.92617 8.66651 10.6662 8.66651ZM7.99284 1.33984C4.31284 1.33984 1.32617 4.32651 1.32617 8.00651C1.32617 11.6865 4.31284 14.6732 7.99284 14.6732C11.6728 14.6732 14.6595 11.6865 14.6595 8.00651C14.6595 4.32651 11.6728 1.33984 7.99284 1.33984ZM3.89284 11.4132C4.34617 11.0532 5.40617 10.6732 6.33284 10.6732C6.37951 10.6732 6.43284 10.6798 6.48617 10.6798C6.64617 10.2532 6.93284 9.81984 7.35284 9.43984C6.97951 9.37318 6.62617 9.33318 6.33284 9.33318C5.46617 9.33318 4.07284 9.63318 3.17951 10.2865C2.84617 9.59318 2.65951 8.81984 2.65951 7.99984C2.65951 5.05984 5.05284 2.66651 7.99284 2.66651C10.9328 2.66651 13.3262 5.05984 13.3262 7.99984C13.3262 8.79984 13.1462 9.55984 12.8262 10.2465C12.1595 9.85318 11.2528 9.66651 10.6662 9.66651C9.65284 9.66651 7.66617 10.2065 7.66617 11.4665V13.3198C6.15284 13.2332 4.80617 12.5132 3.89284 11.4132Z" fill="#FEFEFE"/>
</g>
<defs>
<clipPath id="clip0_4791_22799">
<rect width="16" height="16" fill="white"/>
</clipPath>
</defs>
</svg>
