<svg width="27" height="26" viewBox="0 0 27 26" fill="none" xmlns="http://www.w3.org/2000/svg">
<g clip-path="url(#clip0_6292_11753)">
<path d="M13.8829 26C6.73728 26 0.922852 20.1686 0.922852 13C0.922852 5.83238 6.73728 0 13.8829 0C21.0294 0 26.8429 5.83238 26.8429 13C26.8429 20.1686 21.0294 26 13.8829 26ZM13.8829 2.01393C7.84354 2.01393 2.93059 6.94205 2.93059 13C2.93059 19.0579 7.84354 23.9861 13.8829 23.9861C19.9222 23.9861 24.8351 19.0569 24.8351 13C24.8351 6.94205 19.9222 2.01393 13.8829 2.01393Z" fill="#27AE60"/>
<g clip-path="url(#clip1_6292_11753)">
<path d="M17.7709 9.74987L16.8572 8.83337L12.7489 12.9544L13.6626 13.8709L17.7709 9.74987ZM20.5184 8.83337L13.6626 15.7104L10.9539 12.9999L10.0402 13.9164L13.6626 17.5499L21.4386 9.74987L20.5184 8.83337ZM6.37256 13.9164L9.99488 17.5499L10.9086 16.6334L7.29272 12.9999L6.37256 13.9164Z" fill="#27AE60"/>
</g>
</g>
<defs>
<clipPath id="clip0_6292_11753">
<rect width="25.92" height="26" fill="white" transform="translate(0.922852)"/>
</clipPath>
<clipPath id="clip1_6292_11753">
<rect width="15.552" height="15.6" fill="white" transform="translate(6.10645 5.19995)"/>
</clipPath>
</defs>
</svg>
