<svg width="24" height="19" viewBox="0 0 24 19" fill="none" xmlns="http://www.w3.org/2000/svg">
<path d="M4.66016 7C4.92537 7 5.17973 7.10536 5.36726 7.29289C5.5548 7.48043 5.66016 7.73478 5.66016 8C7.2313 7.99769 8.75714 8.52627 9.99016 9.5H12.1602C13.4932 9.5 14.6902 10.08 15.5142 11H18.6602C19.6054 10.9997 20.5314 11.2674 21.3307 11.772C22.13 12.2767 22.7699 12.9975 23.1762 13.851C20.8112 16.972 16.9822 19 12.6602 19C9.87016 19 7.51016 18.397 5.60016 17.342C5.5302 17.5351 5.4024 17.7018 5.23417 17.8196C5.06595 17.9374 4.8655 18.0003 4.66016 18H1.66016C1.39494 18 1.14059 17.8946 0.953049 17.7071C0.765513 17.5196 0.660156 17.2652 0.660156 17V8C0.660156 7.73478 0.765513 7.48043 0.953049 7.29289C1.14059 7.10536 1.39494 7 1.66016 7H4.66016ZM5.66116 10L5.66016 15.022L5.70516 15.054C7.50016 16.314 9.83816 17 12.6602 17C15.6642 17 18.4592 15.844 20.4952 13.87L20.6282 13.737L20.5082 13.637C20.036 13.2672 19.4636 13.0477 18.8652 13.007L18.6602 13H16.5492C16.6212 13.322 16.6602 13.656 16.6602 14V15H7.66016V13L14.4502 12.999L14.4162 12.921C14.2245 12.5205 13.9297 12.1783 13.5621 11.9295C13.1944 11.6806 12.7672 11.5341 12.3242 11.505L12.1602 11.5H9.23016C8.76547 11.0247 8.21043 10.6472 7.59768 10.3896C6.98493 10.132 6.32685 9.99952 5.66216 10H5.66116ZM3.66016 9H2.66016V16H3.66016V9ZM17.6602 3C18.4558 3 19.2189 3.31607 19.7815 3.87868C20.3441 4.44129 20.6602 5.20435 20.6602 6C20.6602 6.79565 20.3441 7.55871 19.7815 8.12132C19.2189 8.68393 18.4558 9 17.6602 9C16.8645 9 16.1014 8.68393 15.5388 8.12132C14.9762 7.55871 14.6602 6.79565 14.6602 6C14.6602 5.20435 14.9762 4.44129 15.5388 3.87868C16.1014 3.31607 16.8645 3 17.6602 3ZM17.6602 5C17.3949 5 17.1406 5.10536 16.953 5.29289C16.7655 5.48043 16.6602 5.73478 16.6602 6C16.6602 6.26522 16.7655 6.51957 16.953 6.70711C17.1406 6.89464 17.3949 7 17.6602 7C17.9254 7 18.1797 6.89464 18.3673 6.70711C18.5548 6.51957 18.6602 6.26522 18.6602 6C18.6602 5.73478 18.5548 5.48043 18.3673 5.29289C18.1797 5.10536 17.9254 5 17.6602 5ZM10.6602 0C11.4558 0 12.2189 0.316071 12.7815 0.87868C13.3441 1.44129 13.6602 2.20435 13.6602 3C13.6602 3.79565 13.3441 4.55871 12.7815 5.12132C12.2189 5.68393 11.4558 6 10.6602 6C9.86451 6 9.10144 5.68393 8.53884 5.12132C7.97623 4.55871 7.66016 3.79565 7.66016 3C7.66016 2.20435 7.97623 1.44129 8.53884 0.87868C9.10144 0.316071 9.86451 0 10.6602 0ZM10.6602 2C10.3949 2 10.1406 2.10536 9.95305 2.29289C9.76551 2.48043 9.66016 2.73478 9.66016 3C9.66016 3.26522 9.76551 3.51957 9.95305 3.70711C10.1406 3.89464 10.3949 4 10.6602 4C10.9254 4 11.1797 3.89464 11.3673 3.70711C11.5548 3.51957 11.6602 3.26522 11.6602 3C11.6602 2.73478 11.5548 2.48043 11.3673 2.29289C11.1797 2.10536 10.9254 2 10.6602 2Z" fill="#002841" fill-opacity="0.5"/>
</svg>
