<svg width="19" height="19" viewBox="0 0 19 19" fill="none" xmlns="http://www.w3.org/2000/svg">
<path d="M8.42277 6.20013C8.45751 6.2696 8.49224 6.33907 8.52698 6.39118C8.56171 6.44328 8.61382 6.49538 8.64855 6.54748C8.70065 6.59959 8.75276 6.65169 8.82223 6.70379C8.87433 6.73853 8.9438 6.79063 9.03064 6.808C9.10011 6.84273 9.16958 6.8601 9.25641 6.87747C9.34325 6.89483 9.41272 6.89483 9.48219 6.89483C9.55166 6.89483 9.6385 6.89483 9.70797 6.87747C9.77744 6.8601 9.84691 6.84273 9.89901 6.808H9.91638C9.98585 6.77326 10.0553 6.73853 10.1248 6.68642C10.1769 6.65169 10.229 6.59959 10.2811 6.54748L10.2985 6.53012C10.3506 6.47801 10.3853 6.42591 10.42 6.37381C10.4548 6.32171 10.4895 6.2696 10.5069 6.20013C10.5069 6.18277 10.5069 6.18277 10.5242 6.1654C10.559 6.09593 10.5763 6.00909 10.5937 5.93962C10.6111 5.87015 10.6111 5.78332 10.6111 5.71385C10.6111 5.64438 10.6111 5.55754 10.5937 5.48807C10.5763 5.4186 10.559 5.34913 10.5242 5.26229C10.4721 5.14072 10.4027 5.03651 10.3158 4.94968C10.2985 4.93231 10.2985 4.93231 10.2811 4.91494C10.229 4.86284 10.1769 4.82811 10.1074 4.776C10.0379 4.74127 9.98585 4.70653 9.91638 4.6718C9.84691 4.63706 9.77744 4.6197 9.70797 4.60233C9.62113 4.58496 9.55166 4.58496 9.48219 4.58496C9.41272 4.58496 9.32588 4.58496 9.25641 4.60233C9.18694 4.6197 9.11747 4.63706 9.048 4.6718H9.03064C8.96117 4.70653 8.8917 4.74127 8.83959 4.776C8.77012 4.82811 8.71802 4.86284 8.66592 4.91494C8.61382 4.96704 8.56171 5.01915 8.52698 5.07125C8.49224 5.12335 8.45751 5.19282 8.42277 5.26229C8.38804 5.33176 8.37067 5.40123 8.3533 5.4707C8.33594 5.55754 8.33594 5.62701 8.33594 5.69648C8.33594 5.76595 8.33594 5.85279 8.3533 5.92226C8.37067 6.06119 8.40541 6.13066 8.42277 6.20013Z" fill="#EB5757"/>
<path d="M10.8371 12.5572H10.4376V8.30214C10.4376 8.059 10.2466 7.85059 9.98607 7.85059H8.16249C7.91935 7.85059 7.71094 8.04163 7.71094 8.30214V9.23998C7.71094 9.48313 7.90198 9.69154 8.16249 9.69154H8.52721V12.5745H8.16249C7.91935 12.5745 7.71094 12.7656 7.71094 13.0261V13.9639C7.71094 14.2071 7.90198 14.4155 8.16249 14.4155H10.8371C11.0802 14.4155 11.2886 14.2244 11.2886 13.9639V13.0261C11.2886 12.7656 11.0802 12.5572 10.8371 12.5572Z" fill="#EB5757"/>
<path d="M9.5 0C4.25503 0 0 4.25503 0 9.5C0 14.745 4.25503 19 9.5 19C14.745 19 19 14.745 19 9.5C19 4.25503 14.745 0 9.5 0ZM9.5 17.7495C4.94973 17.7495 1.25046 14.0503 1.25046 9.5C1.25046 4.94973 4.94973 1.25046 9.5 1.25046C14.0503 1.25046 17.7495 4.94973 17.7495 9.5C17.7495 14.0503 14.0503 17.7495 9.5 17.7495Z" fill="#EB5757"/>
</svg>
