<svg width="14" height="18" viewBox="0 0 14 18" fill="none" xmlns="http://www.w3.org/2000/svg">
<path fill-rule="evenodd" clip-rule="evenodd" d="M1.01 2C1.01 1.45 1.45 1 2 1H8L13 6V16C13 16.55 12.55 17 12 17H2C1.44 17 1 16.55 1 16L1.01 2ZM8 2V6H12L8 2Z" fill="#27AE60" fill-opacity="0.05"/>
<path d="M1.01 2L1.51 2.00036V2H1.01ZM8 1L8.35355 0.646447L8.20711 0.5H8V1ZM13 6H13.5V5.79289L13.3536 5.64645L13 6ZM1 16L0.5 15.9996V16H1ZM8 6H7.5V6.5H8V6ZM8 2L8.35355 1.64645L7.5 0.792893V2H8ZM12 6V6.5H13.2071L12.3536 5.64645L12 6ZM2 0.5C1.16733 0.5 0.51 1.18043 0.51 2H1.51C1.51 1.71957 1.73267 1.5 2 1.5V0.5ZM8 0.5H2V1.5H8V0.5ZM13.3536 5.64645L8.35355 0.646447L7.64645 1.35355L12.6464 6.35355L13.3536 5.64645ZM13.5 16V6H12.5V16H13.5ZM12 17.5C12.8261 17.5 13.5 16.8261 13.5 16H12.5C12.5 16.2739 12.2739 16.5 12 16.5V17.5ZM2 17.5H12V16.5H2V17.5ZM0.5 16C0.5 16.8229 1.1606 17.5 2 17.5V16.5C1.7194 16.5 1.5 16.2771 1.5 16H0.5ZM0.51 1.99964L0.5 15.9996L1.5 16.0004L1.51 2.00036L0.51 1.99964ZM8.5 6V2H7.5V6H8.5ZM12 5.5H8V6.5H12V5.5ZM7.64645 2.35355L11.6464 6.35355L12.3536 5.64645L8.35355 1.64645L7.64645 2.35355Z" fill="#14703A"/>
</svg>
