<svg width="100" height="100" viewBox="0 0 100 100" fill="none" xmlns="http://www.w3.org/2000/svg">
<g filter="url(#filter0_d_430_3727)">
<circle cx="50" cy="48" r="30" fill="#27AE60"/>
<circle cx="50" cy="48" r="29.5" stroke=""/>
</g>
<path d="M49.5264 54.8979V54.8809" stroke="white" stroke-width="2.6875" stroke-linecap="round" stroke-linejoin="round"/>
<path d="M45.4951 45.4746C45.4951 44.6773 45.7315 43.8979 46.1745 43.235C46.6175 42.572 47.2471 42.0553 47.9837 41.7502C48.7203 41.4451 49.5308 41.3653 50.3128 41.5208C51.0948 41.6764 51.8131 42.0603 52.3769 42.6241C52.9407 43.1879 53.3246 43.9062 53.4802 44.6882C53.6357 45.4701 53.5559 46.2807 53.2508 47.0173C52.9456 47.7539 52.4289 48.3835 51.766 48.8265C51.1031 49.2694 50.3237 49.5059 49.5264 49.5059L49.5264 50.4017" stroke="white" stroke-width="2.6875" stroke-linecap="round" stroke-linejoin="round"/>
<path d="M36.5371 48.1615C36.5371 55.3354 42.3527 61.151 49.5267 61.151C56.7006 61.151 62.5163 55.3354 62.5163 48.1615C62.5163 40.9875 56.7006 35.1719 49.5267 35.1719C42.3527 35.1719 36.5371 40.9875 36.5371 48.1615Z" stroke="white" stroke-width="2.6875"/>
<defs>
<filter id="filter0_d_430_3727" x="0" y="0" width="100" height="100" filterUnits="userSpaceOnUse" color-interpolation-filters="sRGB">
<feFlood flood-opacity="0" result="BackgroundImageFix"/>
<feColorMatrix in="SourceAlpha" type="matrix" values="0 0 0 0 0 0 0 0 0 0 0 0 0 0 0 0 0 0 127 0" result="hardAlpha"/>
<feOffset dy="2"/>
<feGaussianBlur stdDeviation="10"/>
<feColorMatrix type="matrix" values="0 0 0 0 0.0705882 0 0 0 0 0.54902 0 0 0 0 0.376784 0 0 0 0.2 0"/>
<feBlend mode="normal" in2="BackgroundImageFix" result="effect1_dropShadow_430_3727"/>
<feBlend mode="normal" in="SourceGraphic" in2="effect1_dropShadow_430_3727" result="shape"/>
</filter>
</defs>
</svg>
