<svg width="192" height="37" viewBox="0 0 192 37" fill="none" xmlns="http://www.w3.org/2000/svg">
<rect x="1" y="1" width="190" height="35" rx="17.5" fill="#041926" fill-opacity="0.1" stroke="#041926" stroke-width="0.7"/>
<rect x="93" y="5" width="91" height="27" rx="13.5" fill="#041926"/>
<path d="M117.91 14.92H118.87V21.1H122.12V22H117.91V14.92ZM122.936 17.26H123.836V22H122.936V17.26ZM122.726 15.56C122.726 15.38 122.789 15.2267 122.916 15.1C123.049 14.9667 123.206 14.9 123.386 14.9C123.566 14.9 123.719 14.9667 123.846 15.1C123.979 15.2267 124.046 15.38 124.046 15.56C124.046 15.74 123.979 15.8967 123.846 16.03C123.719 16.1567 123.566 16.22 123.386 16.22C123.206 16.22 123.049 16.1567 122.916 16.03C122.789 15.8967 122.726 15.74 122.726 15.56ZM124.698 17.26H125.738L127.158 20.89L128.518 17.26H129.478L127.618 22H126.628L124.698 17.26ZM130.948 19.96C130.948 20.1667 130.991 20.3567 131.078 20.53C131.171 20.6967 131.291 20.84 131.438 20.96C131.585 21.08 131.755 21.1733 131.948 21.24C132.141 21.3067 132.341 21.34 132.548 21.34C132.828 21.34 133.071 21.2767 133.278 21.15C133.485 21.0167 133.675 20.8433 133.848 20.63L134.528 21.15C134.028 21.7967 133.328 22.12 132.428 22.12C132.055 22.12 131.715 22.0567 131.408 21.93C131.108 21.8033 130.851 21.63 130.638 21.41C130.431 21.1833 130.271 20.92 130.158 20.62C130.045 20.3133 129.988 19.9833 129.988 19.63C129.988 19.2767 130.048 18.95 130.168 18.65C130.295 18.3433 130.465 18.08 130.678 17.86C130.898 17.6333 131.158 17.4567 131.458 17.33C131.758 17.2033 132.085 17.14 132.438 17.14C132.858 17.14 133.211 17.2133 133.498 17.36C133.791 17.5067 134.031 17.7 134.218 17.94C134.405 18.1733 134.538 18.44 134.618 18.74C134.705 19.0333 134.748 19.3333 134.748 19.64V19.96H130.948ZM133.788 19.24C133.781 19.04 133.748 18.8567 133.688 18.69C133.635 18.5233 133.551 18.38 133.438 18.26C133.325 18.1333 133.181 18.0367 133.008 17.97C132.841 17.8967 132.645 17.86 132.418 17.86C132.198 17.86 131.995 17.9033 131.808 17.99C131.628 18.07 131.475 18.1767 131.348 18.31C131.221 18.4433 131.121 18.5933 131.048 18.76C130.981 18.92 130.948 19.08 130.948 19.24H133.788ZM139.048 20.52C139.221 20.78 139.441 20.9733 139.708 21.1C139.981 21.22 140.261 21.28 140.548 21.28C140.708 21.28 140.871 21.2567 141.038 21.21C141.204 21.1567 141.354 21.08 141.488 20.98C141.628 20.88 141.741 20.7567 141.828 20.61C141.914 20.4633 141.958 20.2933 141.958 20.1C141.958 19.8267 141.871 19.62 141.698 19.48C141.524 19.3333 141.308 19.2133 141.048 19.12C140.794 19.02 140.514 18.9267 140.208 18.84C139.908 18.7467 139.628 18.62 139.368 18.46C139.114 18.3 138.901 18.0867 138.728 17.82C138.554 17.5467 138.468 17.18 138.468 16.72C138.468 16.5133 138.511 16.2933 138.598 16.06C138.691 15.8267 138.834 15.6133 139.028 15.42C139.221 15.2267 139.468 15.0667 139.768 14.94C140.074 14.8067 140.441 14.74 140.868 14.74C141.254 14.74 141.624 14.7933 141.978 14.9C142.331 15.0067 142.641 15.2233 142.908 15.55L142.128 16.26C142.008 16.0733 141.838 15.9233 141.618 15.81C141.398 15.6967 141.148 15.64 140.868 15.64C140.601 15.64 140.378 15.6767 140.198 15.75C140.024 15.8167 139.884 15.9067 139.778 16.02C139.671 16.1267 139.594 16.2433 139.548 16.37C139.508 16.4967 139.488 16.6133 139.488 16.72C139.488 17.02 139.574 17.25 139.748 17.41C139.921 17.57 140.134 17.7 140.388 17.8C140.648 17.9 140.928 17.99 141.228 18.07C141.534 18.15 141.814 18.2633 142.068 18.41C142.328 18.55 142.544 18.7433 142.718 18.99C142.891 19.23 142.978 19.5633 142.978 19.99C142.978 20.33 142.911 20.6367 142.778 20.91C142.651 21.1833 142.478 21.4133 142.258 21.6C142.038 21.7867 141.778 21.93 141.478 22.03C141.178 22.13 140.858 22.18 140.518 22.18C140.064 22.18 139.634 22.1 139.228 21.94C138.821 21.78 138.498 21.5333 138.258 21.2L139.048 20.52ZM144.844 19.96C144.844 20.1667 144.888 20.3567 144.974 20.53C145.068 20.6967 145.188 20.84 145.334 20.96C145.481 21.08 145.651 21.1733 145.844 21.24C146.038 21.3067 146.238 21.34 146.444 21.34C146.724 21.34 146.968 21.2767 147.174 21.15C147.381 21.0167 147.571 20.8433 147.744 20.63L148.424 21.15C147.924 21.7967 147.224 22.12 146.324 22.12C145.951 22.12 145.611 22.0567 145.304 21.93C145.004 21.8033 144.748 21.63 144.534 21.41C144.328 21.1833 144.168 20.92 144.054 20.62C143.941 20.3133 143.884 19.9833 143.884 19.63C143.884 19.2767 143.944 18.95 144.064 18.65C144.191 18.3433 144.361 18.08 144.574 17.86C144.794 17.6333 145.054 17.4567 145.354 17.33C145.654 17.2033 145.981 17.14 146.334 17.14C146.754 17.14 147.108 17.2133 147.394 17.36C147.688 17.5067 147.928 17.7 148.114 17.94C148.301 18.1733 148.434 18.44 148.514 18.74C148.601 19.0333 148.644 19.3333 148.644 19.64V19.96H144.844ZM147.684 19.24C147.678 19.04 147.644 18.8567 147.584 18.69C147.531 18.5233 147.448 18.38 147.334 18.26C147.221 18.1333 147.078 18.0367 146.904 17.97C146.738 17.8967 146.541 17.86 146.314 17.86C146.094 17.86 145.891 17.9033 145.704 17.99C145.524 18.07 145.371 18.1767 145.244 18.31C145.118 18.4433 145.018 18.5933 144.944 18.76C144.878 18.92 144.844 19.08 144.844 19.24H147.684ZM149.721 17.26H150.621V17.99H150.641C150.701 17.8633 150.781 17.75 150.881 17.65C150.981 17.5433 151.091 17.4533 151.211 17.38C151.338 17.3067 151.474 17.25 151.621 17.21C151.768 17.1633 151.914 17.14 152.061 17.14C152.208 17.14 152.341 17.16 152.461 17.2L152.421 18.17C152.348 18.15 152.274 18.1333 152.201 18.12C152.128 18.1067 152.054 18.1 151.981 18.1C151.541 18.1 151.204 18.2233 150.971 18.47C150.738 18.7167 150.621 19.1 150.621 19.62V22H149.721V17.26ZM152.852 17.26H153.892L155.312 20.89L156.672 17.26H157.632L155.772 22H154.782L152.852 17.26ZM159.102 19.96C159.102 20.1667 159.146 20.3567 159.232 20.53C159.326 20.6967 159.446 20.84 159.592 20.96C159.739 21.08 159.909 21.1733 160.102 21.24C160.296 21.3067 160.496 21.34 160.702 21.34C160.982 21.34 161.226 21.2767 161.432 21.15C161.639 21.0167 161.829 20.8433 162.002 20.63L162.682 21.15C162.182 21.7967 161.482 22.12 160.582 22.12C160.209 22.12 159.869 22.0567 159.562 21.93C159.262 21.8033 159.006 21.63 158.792 21.41C158.586 21.1833 158.426 20.92 158.312 20.62C158.199 20.3133 158.142 19.9833 158.142 19.63C158.142 19.2767 158.202 18.95 158.322 18.65C158.449 18.3433 158.619 18.08 158.832 17.86C159.052 17.6333 159.312 17.4567 159.612 17.33C159.912 17.2033 160.239 17.14 160.592 17.14C161.012 17.14 161.366 17.2133 161.652 17.36C161.946 17.5067 162.186 17.7 162.372 17.94C162.559 18.1733 162.692 18.44 162.772 18.74C162.859 19.0333 162.902 19.3333 162.902 19.64V19.96H159.102ZM161.942 19.24C161.936 19.04 161.902 18.8567 161.842 18.69C161.789 18.5233 161.706 18.38 161.592 18.26C161.479 18.1333 161.336 18.0367 161.162 17.97C160.996 17.8967 160.799 17.86 160.572 17.86C160.352 17.86 160.149 17.9033 159.962 17.99C159.782 18.07 159.629 18.1767 159.502 18.31C159.376 18.4433 159.276 18.5933 159.202 18.76C159.136 18.92 159.102 19.08 159.102 19.24H161.942ZM163.979 17.26H164.879V17.99H164.899C164.959 17.8633 165.039 17.75 165.139 17.65C165.239 17.5433 165.349 17.4533 165.469 17.38C165.595 17.3067 165.732 17.25 165.879 17.21C166.025 17.1633 166.172 17.14 166.319 17.14C166.465 17.14 166.599 17.16 166.719 17.2L166.679 18.17C166.605 18.15 166.532 18.1333 166.459 18.12C166.385 18.1067 166.312 18.1 166.239 18.1C165.799 18.1 165.462 18.2233 165.229 18.47C164.995 18.7167 164.879 19.1 164.879 19.62V22H163.979V17.26Z" fill="white"/>
<path d="M30.39 15.82H28.11V14.92H33.63V15.82H31.35V22H30.39V15.82ZM33.9889 19.96C33.9889 20.1667 34.0322 20.3567 34.1189 20.53C34.2122 20.6967 34.3322 20.84 34.4789 20.96C34.6256 21.08 34.7956 21.1733 34.9889 21.24C35.1822 21.3067 35.3822 21.34 35.5889 21.34C35.8689 21.34 36.1122 21.2767 36.3189 21.15C36.5256 21.0167 36.7156 20.8433 36.8889 20.63L37.5689 21.15C37.0689 21.7967 36.3689 22.12 35.4689 22.12C35.0956 22.12 34.7556 22.0567 34.4489 21.93C34.1489 21.8033 33.8922 21.63 33.6789 21.41C33.4722 21.1833 33.3122 20.92 33.1989 20.62C33.0856 20.3133 33.0289 19.9833 33.0289 19.63C33.0289 19.2767 33.0889 18.95 33.2089 18.65C33.3356 18.3433 33.5056 18.08 33.7189 17.86C33.9389 17.6333 34.1989 17.4567 34.4989 17.33C34.7989 17.2033 35.1256 17.14 35.4789 17.14C35.8989 17.14 36.2522 17.2133 36.5389 17.36C36.8322 17.5067 37.0722 17.7 37.2589 17.94C37.4456 18.1733 37.5789 18.44 37.6589 18.74C37.7456 19.0333 37.7889 19.3333 37.7889 19.64V19.96H33.9889ZM36.8289 19.24C36.8222 19.04 36.7889 18.8567 36.7289 18.69C36.6756 18.5233 36.5922 18.38 36.4789 18.26C36.3656 18.1333 36.2222 18.0367 36.0489 17.97C35.8822 17.8967 35.6856 17.86 35.4589 17.86C35.2389 17.86 35.0356 17.9033 34.8489 17.99C34.6689 18.07 34.5156 18.1767 34.3889 18.31C34.2622 18.4433 34.1622 18.5933 34.0889 18.76C34.0222 18.92 33.9889 19.08 33.9889 19.24H36.8289ZM41.3855 18.45C41.2789 18.3167 41.1455 18.2067 40.9855 18.12C40.8322 18.0267 40.6422 17.98 40.4155 17.98C40.2022 17.98 40.0155 18.0267 39.8555 18.12C39.7022 18.2067 39.6255 18.3367 39.6255 18.51C39.6255 18.65 39.6689 18.7633 39.7555 18.85C39.8489 18.9367 39.9555 19.0067 40.0755 19.06C40.2022 19.1133 40.3355 19.1533 40.4755 19.18C40.6155 19.2067 40.7355 19.23 40.8355 19.25C41.0289 19.2967 41.2089 19.3533 41.3755 19.42C41.5489 19.4867 41.6955 19.5733 41.8155 19.68C41.9422 19.7867 42.0389 19.9167 42.1055 20.07C42.1789 20.2233 42.2155 20.41 42.2155 20.63C42.2155 20.8967 42.1589 21.1267 42.0455 21.32C41.9322 21.5067 41.7855 21.66 41.6055 21.78C41.4255 21.9 41.2189 21.9867 40.9855 22.04C40.7589 22.0933 40.5289 22.12 40.2955 22.12C39.9022 22.12 39.5555 22.06 39.2555 21.94C38.9622 21.82 38.6989 21.6 38.4655 21.28L39.1455 20.72C39.2922 20.8667 39.4555 20.9967 39.6355 21.11C39.8155 21.2233 40.0355 21.28 40.2955 21.28C40.4089 21.28 40.5222 21.27 40.6355 21.25C40.7555 21.2233 40.8589 21.1867 40.9455 21.14C41.0389 21.0867 41.1122 21.0233 41.1655 20.95C41.2255 20.87 41.2555 20.78 41.2555 20.68C41.2555 20.5467 41.2122 20.4367 41.1255 20.35C41.0455 20.2633 40.9455 20.1967 40.8255 20.15C40.7122 20.0967 40.5889 20.0567 40.4555 20.03C40.3289 19.9967 40.2155 19.97 40.1155 19.95C39.9222 19.9033 39.7389 19.85 39.5655 19.79C39.3922 19.73 39.2389 19.65 39.1055 19.55C38.9722 19.45 38.8655 19.3233 38.7855 19.17C38.7055 19.0167 38.6655 18.8267 38.6655 18.6C38.6655 18.3533 38.7155 18.14 38.8155 17.96C38.9222 17.7733 39.0589 17.62 39.2255 17.5C39.3989 17.38 39.5922 17.29 39.8055 17.23C40.0255 17.17 40.2455 17.14 40.4655 17.14C40.7855 17.14 41.0922 17.2 41.3855 17.32C41.6789 17.44 41.9122 17.64 42.0855 17.92L41.3855 18.45ZM45.8489 18.04H44.5589V20.19C44.5589 20.3233 44.5622 20.4567 44.5689 20.59C44.5756 20.7167 44.5989 20.8333 44.6389 20.94C44.6856 21.04 44.7522 21.1233 44.8389 21.19C44.9322 21.25 45.0656 21.28 45.2389 21.28C45.3456 21.28 45.4556 21.27 45.5689 21.25C45.6822 21.23 45.7856 21.1933 45.8789 21.14V21.96C45.7722 22.02 45.6322 22.06 45.4589 22.08C45.2922 22.1067 45.1622 22.12 45.0689 22.12C44.7222 22.12 44.4522 22.0733 44.2589 21.98C44.0722 21.88 43.9322 21.7533 43.8389 21.6C43.7522 21.4467 43.6989 21.2767 43.6789 21.09C43.6656 20.8967 43.6589 20.7033 43.6589 20.51V18.04H42.6189V17.26H43.6589V15.93H44.5589V17.26H45.8489V18.04ZM50.2333 20.52C50.4066 20.78 50.6266 20.9733 50.8933 21.1C51.1666 21.22 51.4466 21.28 51.7333 21.28C51.8933 21.28 52.0566 21.2567 52.2233 21.21C52.3899 21.1567 52.5399 21.08 52.6733 20.98C52.8133 20.88 52.9266 20.7567 53.0133 20.61C53.0999 20.4633 53.1433 20.2933 53.1433 20.1C53.1433 19.8267 53.0566 19.62 52.8833 19.48C52.7099 19.3333 52.4933 19.2133 52.2333 19.12C51.9799 19.02 51.6999 18.9267 51.3933 18.84C51.0933 18.7467 50.8133 18.62 50.5533 18.46C50.2999 18.3 50.0866 18.0867 49.9133 17.82C49.7399 17.5467 49.6533 17.18 49.6533 16.72C49.6533 16.5133 49.6966 16.2933 49.7833 16.06C49.8766 15.8267 50.0199 15.6133 50.2133 15.42C50.4066 15.2267 50.6533 15.0667 50.9533 14.94C51.2599 14.8067 51.6266 14.74 52.0533 14.74C52.4399 14.74 52.8099 14.7933 53.1633 14.9C53.5166 15.0067 53.8266 15.2233 54.0933 15.55L53.3133 16.26C53.1933 16.0733 53.0233 15.9233 52.8033 15.81C52.5833 15.6967 52.3333 15.64 52.0533 15.64C51.7866 15.64 51.5633 15.6767 51.3833 15.75C51.2099 15.8167 51.0699 15.9067 50.9633 16.02C50.8566 16.1267 50.7799 16.2433 50.7333 16.37C50.6933 16.4967 50.6733 16.6133 50.6733 16.72C50.6733 17.02 50.7599 17.25 50.9333 17.41C51.1066 17.57 51.3199 17.7 51.5733 17.8C51.8333 17.9 52.1133 17.99 52.4133 18.07C52.7199 18.15 52.9999 18.2633 53.2533 18.41C53.5133 18.55 53.7299 18.7433 53.9033 18.99C54.0766 19.23 54.1633 19.5633 54.1633 19.99C54.1633 20.33 54.0966 20.6367 53.9633 20.91C53.8366 21.1833 53.6633 21.4133 53.4433 21.6C53.2233 21.7867 52.9633 21.93 52.6633 22.03C52.3633 22.13 52.0433 22.18 51.7033 22.18C51.2499 22.18 50.8199 22.1 50.4133 21.94C50.0066 21.78 49.6833 21.5333 49.4433 21.2L50.2333 20.52ZM56.0299 19.96C56.0299 20.1667 56.0733 20.3567 56.1599 20.53C56.2533 20.6967 56.3733 20.84 56.5199 20.96C56.6666 21.08 56.8366 21.1733 57.0299 21.24C57.2233 21.3067 57.4233 21.34 57.6299 21.34C57.9099 21.34 58.1533 21.2767 58.3599 21.15C58.5666 21.0167 58.7566 20.8433 58.9299 20.63L59.6099 21.15C59.1099 21.7967 58.4099 22.12 57.5099 22.12C57.1366 22.12 56.7966 22.0567 56.4899 21.93C56.1899 21.8033 55.9333 21.63 55.7199 21.41C55.5133 21.1833 55.3533 20.92 55.2399 20.62C55.1266 20.3133 55.0699 19.9833 55.0699 19.63C55.0699 19.2767 55.1299 18.95 55.2499 18.65C55.3766 18.3433 55.5466 18.08 55.7599 17.86C55.9799 17.6333 56.2399 17.4567 56.5399 17.33C56.8399 17.2033 57.1666 17.14 57.5199 17.14C57.9399 17.14 58.2933 17.2133 58.5799 17.36C58.8733 17.5067 59.1133 17.7 59.2999 17.94C59.4866 18.1733 59.6199 18.44 59.6999 18.74C59.7866 19.0333 59.8299 19.3333 59.8299 19.64V19.96H56.0299ZM58.8699 19.24C58.8633 19.04 58.8299 18.8567 58.7699 18.69C58.7166 18.5233 58.6333 18.38 58.5199 18.26C58.4066 18.1333 58.2633 18.0367 58.0899 17.97C57.9233 17.8967 57.7266 17.86 57.4999 17.86C57.2799 17.86 57.0766 17.9033 56.8899 17.99C56.7099 18.07 56.5566 18.1767 56.4299 18.31C56.3033 18.4433 56.2033 18.5933 56.1299 18.76C56.0633 18.92 56.0299 19.08 56.0299 19.24H58.8699ZM60.9066 17.26H61.8066V17.99H61.8266C61.8866 17.8633 61.9666 17.75 62.0666 17.65C62.1666 17.5433 62.2766 17.4533 62.3966 17.38C62.5232 17.3067 62.6599 17.25 62.8066 17.21C62.9532 17.1633 63.0999 17.14 63.2466 17.14C63.3932 17.14 63.5266 17.16 63.6466 17.2L63.6066 18.17C63.5332 18.15 63.4599 18.1333 63.3866 18.12C63.3132 18.1067 63.2399 18.1 63.1666 18.1C62.7266 18.1 62.3899 18.2233 62.1566 18.47C61.9232 18.7167 61.8066 19.1 61.8066 19.62V22H60.9066V17.26ZM64.0377 17.26H65.0777L66.4977 20.89L67.8577 17.26H68.8177L66.9577 22H65.9677L64.0377 17.26ZM70.2877 19.96C70.2877 20.1667 70.3311 20.3567 70.4177 20.53C70.5111 20.6967 70.6311 20.84 70.7777 20.96C70.9244 21.08 71.0944 21.1733 71.2877 21.24C71.4811 21.3067 71.6811 21.34 71.8877 21.34C72.1677 21.34 72.4111 21.2767 72.6177 21.15C72.8244 21.0167 73.0144 20.8433 73.1877 20.63L73.8677 21.15C73.3677 21.7967 72.6677 22.12 71.7677 22.12C71.3944 22.12 71.0544 22.0567 70.7477 21.93C70.4477 21.8033 70.1911 21.63 69.9777 21.41C69.7711 21.1833 69.6111 20.92 69.4977 20.62C69.3844 20.3133 69.3277 19.9833 69.3277 19.63C69.3277 19.2767 69.3877 18.95 69.5077 18.65C69.6344 18.3433 69.8044 18.08 70.0177 17.86C70.2377 17.6333 70.4977 17.4567 70.7977 17.33C71.0977 17.2033 71.4244 17.14 71.7777 17.14C72.1977 17.14 72.5511 17.2133 72.8377 17.36C73.1311 17.5067 73.3711 17.7 73.5577 17.94C73.7444 18.1733 73.8777 18.44 73.9577 18.74C74.0444 19.0333 74.0877 19.3333 74.0877 19.64V19.96H70.2877ZM73.1277 19.24C73.1211 19.04 73.0877 18.8567 73.0277 18.69C72.9744 18.5233 72.8911 18.38 72.7777 18.26C72.6644 18.1333 72.5211 18.0367 72.3477 17.97C72.1811 17.8967 71.9844 17.86 71.7577 17.86C71.5377 17.86 71.3344 17.9033 71.1477 17.99C70.9677 18.07 70.8144 18.1767 70.6877 18.31C70.5611 18.4433 70.4611 18.5933 70.3877 18.76C70.3211 18.92 70.2877 19.08 70.2877 19.24H73.1277ZM75.1644 17.26H76.0644V17.99H76.0844C76.1444 17.8633 76.2244 17.75 76.3244 17.65C76.4244 17.5433 76.5344 17.4533 76.6544 17.38C76.781 17.3067 76.9177 17.25 77.0644 17.21C77.211 17.1633 77.3577 17.14 77.5044 17.14C77.651 17.14 77.7844 17.16 77.9044 17.2L77.8644 18.17C77.791 18.15 77.7177 18.1333 77.6444 18.12C77.571 18.1067 77.4977 18.1 77.4244 18.1C76.9844 18.1 76.6477 18.2233 76.4144 18.47C76.181 18.7167 76.0644 19.1 76.0644 19.62V22H75.1644V17.26Z" fill="#858484"/>
</svg>
