<svg width="15" height="13" viewBox="0 0 15 13" fill="none" xmlns="http://www.w3.org/2000/svg">
<path d="M12.5 0.25C12.9973 0.25 13.4742 0.447544 13.8258 0.799175C14.1775 1.15081 14.375 1.62772 14.375 2.125V3.375H13.125V10.875C13.125 11.3723 12.9275 11.8492 12.5758 12.2008C12.2242 12.5525 11.7473 12.75 11.25 12.75H2.5C2.00272 12.75 1.52581 12.5525 1.17417 12.2008C0.822544 11.8492 0.625 11.3723 0.625 10.875V9.625H10.625V10.875C10.625 11.0281 10.6812 11.1758 10.7829 11.2902C10.8847 11.4046 11.0248 11.4777 11.1769 11.4956L11.25 11.5C11.4031 11.5 11.5508 11.4438 11.6652 11.3421C11.7796 11.2403 11.8527 11.1002 11.8706 10.9481L11.875 10.875V1.5H3.75C3.59692 1.50002 3.44916 1.55622 3.33477 1.65795C3.22037 1.75967 3.14729 1.89984 3.12937 2.05187L3.125 2.125V8.375H1.875V2.125C1.875 1.62772 2.07254 1.15081 2.42417 0.799175C2.77581 0.447544 3.25272 0.25 3.75 0.25H12.5Z" fill="white"/>
</svg>
