<svg width="14" height="14" viewBox="0 0 14 14" fill="none" xmlns="http://www.w3.org/2000/svg">
<g clip-path="url(#clip0_7216_11948)">
<path d="M4.01917 10.2033L5.36084 11.545M11.5442 8.71C10.9745 9.27821 10.2606 9.68011 9.4793 9.87235C8.69802 10.0646 7.87909 10.0399 7.11084 9.80083L4.36334 12.5425C4.165 12.7467 3.77417 12.8692 3.49417 12.8283L2.2225 12.6533C1.8025 12.595 1.41167 12.1983 1.3475 11.7783L1.1725 10.5067C1.13167 10.2267 1.26584 9.83583 1.45834 9.6375L4.2 6.89583C3.73334 5.37917 4.095 3.65833 5.29667 2.4625C7.0175 0.741667 9.81167 0.741667 11.5383 2.4625C13.265 4.18333 13.265 6.98917 11.5442 8.71Z" stroke="white" stroke-width="1.2" stroke-miterlimit="10" stroke-linecap="round" stroke-linejoin="round"/>
<path d="M8.45837 6.41602C8.69044 6.41602 8.913 6.32383 9.07709 6.15973C9.24119 5.99564 9.33337 5.77308 9.33337 5.54102C9.33337 5.30895 9.24119 5.08639 9.07709 4.9223C8.913 4.7582 8.69044 4.66602 8.45837 4.66602C8.22631 4.66602 8.00375 4.7582 7.83966 4.9223C7.67556 5.08639 7.58337 5.30895 7.58337 5.54102C7.58337 5.77308 7.67556 5.99564 7.83966 6.15973C8.00375 6.32383 8.22631 6.41602 8.45837 6.41602Z" stroke="white" stroke-width="1.2" stroke-linecap="round" stroke-linejoin="round"/>
</g>
<defs>
<clipPath id="clip0_7216_11948">
<rect width="14" height="14" fill="white"/>
</clipPath>
</defs>
</svg>
