<svg width="22" height="16" viewBox="0 0 22 16" fill="none" xmlns="http://www.w3.org/2000/svg">
<path d="M11 14.294C9.89111 14.9455 8.62977 15.2925 7.34366 15.2999C6.05755 15.3072 4.79232 14.9747 3.67606 14.3358C2.55979 13.697 1.63212 12.7746 0.98693 11.662C0.341744 10.5494 0.00195313 9.28613 0.00195312 8C0.00195313 6.71387 0.341744 5.45056 0.98693 4.33797C1.63212 3.22537 2.55979 2.30298 3.67606 1.66416C4.79232 1.02534 6.05755 0.692769 7.34366 0.700116C8.62977 0.707463 9.89111 1.05447 11 1.706C12.1089 1.05447 13.3702 0.707463 14.6563 0.700116C15.9425 0.692769 17.2077 1.02534 18.3239 1.66416C19.4402 2.30298 20.3679 3.22537 21.0131 4.33797C21.6583 5.45056 21.9981 6.71387 21.9981 8C21.9981 9.28613 21.6583 10.5494 21.0131 11.662C20.3679 12.7746 19.4402 13.697 18.3239 14.3358C17.2077 14.9747 15.9425 15.3072 14.6563 15.2999C13.3702 15.2925 12.1089 14.9455 11 14.294ZM12.702 12.91C13.5067 13.237 14.3794 13.3613 15.2434 13.2718C16.1074 13.1823 16.9361 12.8819 17.6567 12.3969C18.3773 11.912 18.9676 11.2573 19.3758 10.4906C19.784 9.72388 19.9975 8.86859 19.9975 8C19.9975 7.1314 19.784 6.27612 19.3758 5.5094C18.9676 4.74269 18.3773 4.08804 17.6567 3.60307C16.9361 3.11809 16.1074 2.81765 15.2434 2.72819C14.3794 2.63872 13.5067 2.76297 12.702 3.09C13.9255 4.43226 14.6026 6.18375 14.6 8C14.6 9.89 13.881 11.614 12.702 12.91ZM9.298 3.09C8.49332 2.76297 7.6206 2.63872 6.75662 2.72819C5.89265 2.81765 5.0639 3.11809 4.34331 3.60307C3.62271 4.08804 3.03236 4.74269 2.62418 5.5094C2.21601 6.27612 2.00253 7.1314 2.00253 8C2.00253 8.86859 2.21601 9.72388 2.62418 10.4906C3.03236 11.2573 3.62271 11.912 4.34331 12.3969C5.0639 12.8819 5.89265 13.1823 6.75662 13.2718C7.6206 13.3613 8.49332 13.237 9.298 12.91C8.07446 11.5677 7.3974 9.81624 7.4 8C7.4 6.11 8.119 4.386 9.298 3.09ZM11 4.205C10.4928 4.69824 10.0899 5.2883 9.81504 5.9402C9.5402 6.59209 9.39906 7.29254 9.4 8C9.4 9.488 10.013 10.832 11 11.795C11.5072 11.3018 11.9101 10.7117 12.185 10.0598C12.4598 9.40791 12.6009 8.70746 12.6 8C12.6009 7.29254 12.4598 6.59209 12.185 5.9402C11.9101 5.2883 11.5072 4.69824 11 4.205Z" fill="#002841" fill-opacity="0.8"/>
</svg>
