<svg width="5" height="16" viewBox="0 0 5 16" fill="none" xmlns="http://www.w3.org/2000/svg">
<path d="M2.84766 4C3.94766 4 4.84766 3.1 4.84766 2C4.84766 0.9 3.94766 0 2.84766 0C1.74766 0 0.847656 0.9 0.847656 2C0.847656 3.1 1.74766 4 2.84766 4ZM2.84766 6C1.74766 6 0.847656 6.9 0.847656 8C0.847656 9.1 1.74766 10 2.84766 10C3.94766 10 4.84766 9.1 4.84766 8C4.84766 6.9 3.94766 6 2.84766 6ZM2.84766 12C1.74766 12 0.847656 12.9 0.847656 14C0.847656 15.1 1.74766 16 2.84766 16C3.94766 16 4.84766 15.1 4.84766 14C4.84766 12.9 3.94766 12 2.84766 12Z" fill="black"/>
</svg>
