<svg width="15" height="13" viewBox="0 0 15 13" fill="none" xmlns="http://www.w3.org/2000/svg">
<path d="M0.416504 0.828375C0.4178 0.642351 0.492225 0.464304 0.623701 0.332696C0.755176 0.201088 0.933148 0.126484 1.11917 0.125H13.8805C14.2687 0.125 14.5832 0.440208 14.5832 0.828375V12.1716C14.5819 12.3576 14.5075 12.5357 14.376 12.6673C14.2445 12.7989 14.0665 12.8735 13.8805 12.875H1.11917C0.932747 12.8748 0.754023 12.8006 0.622267 12.6687C0.490512 12.5368 0.416504 12.358 0.416504 12.1716V0.828375ZM1.83317 1.54167V11.4583H13.1665V1.54167H1.83317ZM3.24984 2.95833H7.49984V7.20833H3.24984V2.95833ZM4.6665 4.375V5.79167H6.08317V4.375H4.6665ZM3.24984 8.625H11.7498V10.0417H3.24984V8.625ZM8.9165 2.95833H11.7498V4.375H8.9165V2.95833ZM8.9165 5.79167H11.7498V7.20833H8.9165V5.79167Z" fill="#002841"/>
</svg>
