<svg width="13" height="13" viewBox="0 0 13 13" fill="none" xmlns="http://www.w3.org/2000/svg">
<path d="M10.4783 8.71015L9.59452 7.82515L10.4783 6.9414C10.7705 6.65168 11.0027 6.30708 11.1614 5.92739C11.3202 5.54771 11.4024 5.14041 11.4033 4.72887C11.4042 4.31734 11.3238 3.90969 11.1667 3.52931C11.0096 3.14893 10.779 2.80332 10.488 2.51232C10.197 2.22132 9.85136 1.99067 9.47098 1.8336C9.09061 1.67653 8.68295 1.59614 8.27142 1.59704C7.85989 1.59794 7.45258 1.68012 7.0729 1.83885C6.69321 1.99759 6.34862 2.22975 6.0589 2.52202L5.17514 3.4064L4.29077 2.52265L5.17577 1.6389C5.99628 0.818382 7.10914 0.357422 8.26952 0.357422C9.4299 0.357422 10.5428 0.818382 11.3633 1.6389C12.1838 2.45941 12.6447 3.57226 12.6447 4.73265C12.6447 5.89303 12.1838 7.00588 11.3633 7.8264L10.4783 8.71015ZM8.71077 10.4776L7.8264 11.3614C7.00588 12.1819 5.89303 12.6429 4.73265 12.6429C3.57226 12.6429 2.45941 12.1819 1.6389 11.3614C0.818382 10.5409 0.357422 9.42803 0.357422 8.26765C0.357422 7.10726 0.818382 5.99441 1.6389 5.1739L2.52327 4.29015L3.40702 5.17515L2.52327 6.0589C2.231 6.34862 1.99883 6.69321 1.8401 7.0729C1.68137 7.45258 1.59919 7.85989 1.59829 8.27142C1.59739 8.68295 1.67778 9.09061 1.83485 9.47098C1.99192 9.85136 2.22257 10.197 2.51357 10.488C2.80457 10.779 3.15018 11.0096 3.53056 11.1667C3.91093 11.3238 4.31859 11.4042 4.73012 11.4033C5.14165 11.4024 5.54896 11.3202 5.92864 11.1614C6.30833 11.0027 6.65292 10.7705 6.94264 10.4783L7.8264 9.59452L8.71077 10.4776ZM8.26827 3.84827L9.15265 4.73265L4.73327 9.1514L3.8489 8.26765L8.26827 3.84827Z" fill="#27AE60"/>
</svg>
