<svg width="14" height="14" viewBox="0 0 14 14" fill="none" xmlns="http://www.w3.org/2000/svg">
<path d="M1.16675 7.35583H11.0834" stroke="white" stroke-width="1.2" stroke-miterlimit="10" stroke-linecap="round" stroke-linejoin="round"/>
<path d="M11.0834 5.99663V10.1675C11.0659 11.83 10.6109 12.25 8.87842 12.25H3.37175C1.61008 12.25 1.16675 11.8125 1.16675 10.0741V5.99663C1.16675 4.42163 1.53425 3.91413 2.91675 3.83247C3.05675 3.82663 3.20841 3.8208 3.37175 3.8208H8.87842C10.6401 3.8208 11.0834 4.2583 11.0834 5.99663Z" stroke="white" stroke-width="1.2" stroke-linecap="round" stroke-linejoin="round"/>
<path d="M12.8334 3.92583V8.00333C12.8334 9.57833 12.4659 10.0858 11.0834 10.1675V5.99667C11.0834 4.25833 10.6401 3.82083 8.87842 3.82083H3.37175C3.20841 3.82083 3.05675 3.82667 2.91675 3.8325C2.93425 2.17 3.38925 1.75 5.12175 1.75H10.6284C12.3901 1.75 12.8334 2.1875 12.8334 3.92583Z" stroke="white" stroke-width="1.2" stroke-linecap="round" stroke-linejoin="round"/>
<path d="M3.0625 10.3892H4.06583M5.31417 10.3892H7.32083" stroke="white" stroke-width="1.2" stroke-miterlimit="10" stroke-linecap="round" stroke-linejoin="round"/>
</svg>
