<svg width="13" height="9" viewBox="0 0 13 9" fill="none" xmlns="http://www.w3.org/2000/svg">
<path d="M10.291 5.58268V1.24935C10.291 0.653516 9.80352 0.166016 9.20768 0.166016H1.62435C1.02852 0.166016 0.541016 0.653516 0.541016 1.24935V5.58268C0.541016 6.17852 1.02852 6.66602 1.62435 6.66602H9.20768C9.80352 6.66602 10.291 6.17852 10.291 5.58268ZM9.20768 5.58268H1.62435V1.24935H9.20768V5.58268ZM5.41602 1.79102C4.51685 1.79102 3.79102 2.51685 3.79102 3.41602C3.79102 4.31518 4.51685 5.04102 5.41602 5.04102C6.31518 5.04102 7.04102 4.31518 7.04102 3.41602C7.04102 2.51685 6.31518 1.79102 5.41602 1.79102ZM12.4577 1.79102V7.74935C12.4577 8.34518 11.9702 8.83268 11.3743 8.83268H2.16602C2.16602 8.29101 2.16602 8.34518 2.16602 7.74935H11.3743V1.79102C11.9702 1.79102 11.916 1.79102 12.4577 1.79102Z" fill="#FEFEFE"/>
</svg>
