<svg width="14" height="12" viewBox="0 0 14 12" fill="none" xmlns="http://www.w3.org/2000/svg">
<path d="M9.91675 10.9583H4.08341C2.33341 10.9583 1.16675 10.0833 1.16675 8.04163V3.95829C1.16675 1.91663 2.33341 1.04163 4.08341 1.04163H9.91675C11.6667 1.04163 12.8334 1.91663 12.8334 3.95829V8.04163C12.8334 10.0833 11.6667 10.9583 9.91675 10.9583Z" stroke="white" stroke-width="1.2" stroke-miterlimit="10" stroke-linecap="round" stroke-linejoin="round"/>
<path d="M3.20825 4.54167V7.45833M10.7916 4.54167V7.45833M6.99992 7.75C7.46405 7.75 7.90917 7.56563 8.23736 7.23744C8.56554 6.90925 8.74992 6.46413 8.74992 6C8.74992 5.53587 8.56554 5.09075 8.23736 4.76256C7.90917 4.43437 7.46405 4.25 6.99992 4.25C6.53579 4.25 6.09067 4.43437 5.76248 4.76256C5.43429 5.09075 5.24992 5.53587 5.24992 6C5.24992 6.46413 5.43429 6.90925 5.76248 7.23744C6.09067 7.56563 6.53579 7.75 6.99992 7.75Z" stroke="white" stroke-width="1.2" stroke-miterlimit="10" stroke-linecap="round" stroke-linejoin="round"/>
</svg>
