<svg width="13" height="13" viewBox="0 0 13 13" fill="none" xmlns="http://www.w3.org/2000/svg">
<path d="M2.41437 1.77063C3.54847 0.787919 4.99937 0.247913 6.5 0.250006C9.95187 0.250006 12.75 3.04813 12.75 6.50001C12.75 7.83501 12.3313 9.07251 11.6188 10.0875L9.625 6.50001H11.5C11.5001 5.51977 11.212 4.56113 10.6717 3.74329C10.1313 2.92545 9.36246 2.28448 8.46074 1.90008C7.55902 1.51569 6.5642 1.40482 5.59997 1.58127C4.63575 1.75771 3.74466 2.21369 3.0375 2.89251L2.41437 1.77063ZM10.5856 11.2294C9.45153 12.2121 8.00063 12.7521 6.5 12.75C3.04813 12.75 0.25 9.95188 0.25 6.50001C0.25 5.16501 0.66875 3.92751 1.38125 2.91251L3.375 6.50001H1.5C1.49992 7.48024 1.78797 8.43888 2.32834 9.25672C2.8687 10.0746 3.63754 10.7155 4.53926 11.0999C5.44098 11.4843 6.4358 11.5952 7.40003 11.4187C8.36425 11.2423 9.25534 10.7863 9.9625 10.1075L10.5856 11.2294Z" fill="white"/>
</svg>
