<svg width="20" height="22" viewBox="0 0 20 22" fill="none" xmlns="http://www.w3.org/2000/svg">
<path d="M10.3298 13.2522V15.3422C9.42476 15.0222 8.45611 14.9241 7.50524 15.056C6.55437 15.188 5.64903 15.5461 4.86526 16.1005C4.0815 16.6548 3.44218 17.3891 3.001 18.2417C2.55981 19.0943 2.32965 20.0403 2.32983 21.0002L0.329834 20.9992C0.329524 19.7781 0.608755 18.5732 1.14613 17.4766C1.68351 16.3801 2.46477 15.4212 3.43005 14.6733C4.39533 13.9254 5.51901 13.4084 6.71499 13.1619C7.91096 12.9154 9.1475 12.946 10.3298 13.2512V13.2522ZM8.32983 12.0002C5.01483 12.0002 2.32983 9.31524 2.32983 6.00024C2.32983 2.68524 5.01483 0.000244141 8.32983 0.000244141C11.6448 0.000244141 14.3298 2.68524 14.3298 6.00024C14.3298 9.31524 11.6448 12.0002 8.32983 12.0002ZM8.32983 10.0002C10.5398 10.0002 12.3298 8.21024 12.3298 6.00024C12.3298 3.79024 10.5398 2.00024 8.32983 2.00024C6.11983 2.00024 4.32983 3.79024 4.32983 6.00024C4.32983 8.21024 6.11983 10.0002 8.32983 10.0002ZM15.7478 16.0002H19.3338V18.0002H15.7478L17.5768 19.8282L16.1628 21.2432L11.9198 17.0002L16.1628 12.7572L17.5768 14.1722L15.7478 16.0002Z" fill="#002841" fill-opacity="0.5"/>
</svg>
