<svg width="21" height="18" viewBox="0 0 21 18" fill="none" xmlns="http://www.w3.org/2000/svg">
<path d="M1.33008 0H19.3301C19.5953 0 19.8496 0.105357 20.0372 0.292893C20.2247 0.48043 20.3301 0.734784 20.3301 1V17C20.3301 17.2652 20.2247 17.5196 20.0372 17.7071C19.8496 17.8946 19.5953 18 19.3301 18H1.33008C1.06486 18 0.810508 17.8946 0.622971 17.7071C0.435435 17.5196 0.330078 17.2652 0.330078 17V1C0.330078 0.734784 0.435435 0.48043 0.622971 0.292893C0.810508 0.105357 1.06486 0 1.33008 0V0ZM18.3301 9H2.33008V16H18.3301V9ZM18.3301 5V2H2.33008V5H18.3301Z" fill="#002841" fill-opacity="0.5"/>
</svg>
