<svg width="17" height="19" viewBox="0 0 17 19" fill="none" xmlns="http://www.w3.org/2000/svg">
<path d="M8.66634 11.8768V13.6185C7.91211 13.3518 7.1049 13.27 6.31251 13.38C5.52012 13.4899 4.76567 13.7884 4.11253 14.2503C3.45939 14.7123 2.92663 15.3242 2.55898 16.0347C2.19132 16.7452 1.99952 17.5335 1.99967 18.3335L0.333008 18.3327C0.332749 17.3151 0.565442 16.3109 1.01326 15.3972C1.46107 14.4834 2.11212 13.6843 2.91652 13.061C3.72092 12.4378 4.65732 12.0069 5.65397 11.8015C6.65062 11.5961 7.68106 11.6216 8.66634 11.876V11.8768ZM6.99967 10.8335C4.23717 10.8335 1.99967 8.596 1.99967 5.8335C1.99967 3.071 4.23717 0.833496 6.99967 0.833496C9.76217 0.833496 11.9997 3.071 11.9997 5.8335C11.9997 8.596 9.76217 10.8335 6.99967 10.8335ZM6.99967 9.16683C8.84134 9.16683 10.333 7.67516 10.333 5.8335C10.333 3.99183 8.84134 2.50016 6.99967 2.50016C5.15801 2.50016 3.66634 3.99183 3.66634 5.8335C3.66634 7.67516 5.15801 9.16683 6.99967 9.16683ZM11.9997 14.1668V11.6668H13.6663V14.1668H16.1663V15.8335H13.6663V18.3335H11.9997V15.8335H9.49967V14.1668H11.9997Z" fill="white"/>
</svg>
