<svg width="14" height="14" viewBox="0 0 14 14" fill="none" xmlns="http://www.w3.org/2000/svg">
<path d="M5.83333 12.8333H8.16667C11.0833 12.8333 12.25 11.6666 12.25 8.74996V5.24996C12.25 2.33329 11.0833 1.16663 8.16667 1.16663H5.83333C2.91667 1.16663 1.75 2.33329 1.75 5.24996V8.74996C1.75 11.6666 2.91667 12.8333 5.83333 12.8333Z" stroke="white" stroke-width="1.2" stroke-linecap="round" stroke-linejoin="round"/>
<path d="M9.625 4.42163V5.00496C9.625 5.4833 9.23417 5.87996 8.75 5.87996H5.25C4.77167 5.87996 4.375 5.48913 4.375 5.00496V4.42163C4.375 3.9433 4.76583 3.54663 5.25 3.54663H8.75C9.23417 3.54663 9.625 3.93746 9.625 4.42163Z" stroke="white" stroke-width="1.2" stroke-linecap="round" stroke-linejoin="round"/>
<path d="M4.74609 8.16663H4.75309M6.99718 8.16663H7.00418M9.24826 8.16663H9.25526M4.74609 10.2083H4.75309M6.99718 10.2083H7.00418M9.24826 10.2083H9.25526" stroke="white" stroke-width="1.2" stroke-linecap="round" stroke-linejoin="round"/>
</svg>
