<svg width="20" height="20" viewBox="0 0 20 20" fill="none" xmlns="http://www.w3.org/2000/svg">
<path d="M15.5285 14.2323L19.4545 18.1574L18.1575 19.4545L14.2323 15.5284C12.7718 16.6992 10.9552 17.336 9.08337 17.3333C4.52937 17.3333 0.833374 13.6373 0.833374 9.08334C0.833374 4.52934 4.52937 0.83334 9.08337 0.83334C13.6374 0.83334 17.3334 4.52934 17.3334 9.08334C17.336 10.9552 16.6992 12.7718 15.5285 14.2323ZM13.6896 13.5521C14.853 12.3557 15.5027 10.7521 15.5 9.08334C15.5 5.53767 12.6281 2.66667 9.08337 2.66667C5.53771 2.66667 2.66671 5.53767 2.66671 9.08334C2.66671 12.6281 5.53771 15.5 9.08337 15.5C10.7521 15.5026 12.3558 14.8529 13.5521 13.6896L13.6896 13.5521Z" fill="#002841"/>
</svg>
