<svg width="12" height="12" viewBox="0 0 12 12" fill="none" xmlns="http://www.w3.org/2000/svg">
<path d="M11.3193 4.45306C11.1448 4.42694 10.9655 4.40157 10.785 4.37749C10.694 4.07497 10.5725 3.78168 10.4226 3.50312C10.5331 3.35863 10.642 3.21388 10.7472 3.07169C10.9808 2.75577 10.947 2.30771 10.6686 2.0295L9.97123 1.33218C9.69289 1.05379 9.24483 1.02004 8.929 1.25374C8.78632 1.35931 8.64161 1.46815 8.49757 1.57822C8.21905 1.42831 7.9258 1.30681 7.6232 1.21579C7.59907 1.03526 7.57379 0.856015 7.54767 0.681529C7.48957 0.293029 7.14889 0 6.75527 0H5.76898C5.37536 0 5.03469 0.293029 4.97658 0.681485C4.95051 0.855882 4.92519 1.03518 4.90105 1.21575C4.59845 1.30676 4.30516 1.42826 4.02669 1.57818C3.88273 1.46806 3.73794 1.35918 3.59531 1.25369C3.27938 1.02 2.83132 1.05375 2.55307 1.33209L1.85575 2.02937C1.57736 2.30766 1.54353 2.75576 1.77722 3.07174C1.88235 3.21388 1.99123 3.35868 2.10166 3.50312C1.95183 3.78163 1.83029 4.07488 1.73928 4.37749C1.55879 4.40162 1.3795 4.42694 1.20501 4.45306C0.816466 4.51121 0.523438 4.85184 0.523438 5.2455V6.23175C0.523438 6.62537 0.816379 6.96604 1.20492 7.02419C1.37945 7.05031 1.5587 7.07568 1.73923 7.09977C1.83025 7.40232 1.95175 7.69557 2.10161 7.97413C1.99128 8.11849 1.88239 8.26319 1.77704 8.40556C1.54348 8.7214 1.57723 9.16954 1.85557 9.44771L2.55298 10.1451C2.83128 10.4235 3.27933 10.4572 3.59522 10.2236C3.73789 10.1181 3.8826 10.0091 4.0266 9.89912C4.3052 10.049 4.5985 10.1705 4.90101 10.2615C4.92505 10.442 4.95042 10.6213 4.97654 10.7958C5.03469 11.1843 5.37536 11.4773 5.76898 11.4773H6.75527C7.14889 11.4773 7.48957 11.1844 7.54767 10.7958C7.57375 10.6212 7.59907 10.442 7.6232 10.2615C7.92576 10.1705 8.21901 10.0489 8.49757 9.89903C8.64152 10.0091 8.78632 10.118 8.92895 10.2236C9.24479 10.4573 9.69294 10.4235 9.97119 10.1452L10.6686 9.44784C10.9469 9.16955 10.9807 8.72144 10.747 8.40552C10.6418 8.26319 10.5329 8.1184 10.4226 7.97418C10.5724 7.69566 10.694 7.40246 10.785 7.09981C10.9655 7.07568 11.1448 7.05035 11.3192 7.02424C11.7078 6.96609 12.0008 6.62546 12.0008 6.23179V5.24554C12.0008 4.85188 11.7078 4.51121 11.3193 4.45306ZM11.0402 6.0945C10.8818 6.11749 10.7201 6.13981 10.5579 6.16094C10.237 6.20281 9.97432 6.43054 9.88882 6.74104C9.80689 7.03835 9.688 7.32525 9.53548 7.59375C9.37617 7.87403 9.40075 8.22088 9.59808 8.47752C9.69757 8.60687 9.79626 8.73706 9.8923 8.86571L9.38919 9.36887C9.26014 9.27256 9.12995 9.17391 9.00086 9.07465C8.74436 8.87722 8.39742 8.85282 8.1171 9.01196C7.84855 9.16452 7.56166 9.28341 7.26452 9.36534C6.95385 9.45093 6.72611 9.7136 6.68438 10.0344C6.66325 10.1966 6.64097 10.3583 6.61794 10.5168H5.90632C5.88333 10.3583 5.86105 10.1966 5.83988 10.0346C5.79801 9.71365 5.57032 9.45097 5.25973 9.36538C4.96251 9.2835 4.6757 9.1646 4.40707 9.01204C4.12675 8.85278 3.77981 8.87727 3.52335 9.07465C3.39422 9.17396 3.26411 9.27256 3.13498 9.36887L2.63186 8.86571C2.72791 8.73693 2.82655 8.60682 2.92617 8.47734C3.12338 8.2208 3.14795 7.87394 2.98869 7.59366C2.83617 7.32516 2.71728 7.03822 2.63535 6.741C2.54981 6.43041 2.28717 6.20272 1.96631 6.16085C1.80408 6.13968 1.64235 6.11744 1.48388 6.09437V5.38284C1.64235 5.35985 1.80404 5.33753 1.96626 5.3164C2.28713 5.27453 2.54981 5.04679 2.63531 4.73629C2.71723 4.43903 2.83608 4.15213 2.98864 3.88359C3.14795 3.60331 3.12338 3.25641 2.92613 2.99987C2.82647 2.87034 2.72782 2.74019 2.63186 2.61163L3.13498 2.10847C3.26403 2.20478 3.39417 2.30343 3.52322 2.40265C3.77963 2.60007 4.12653 2.62469 4.40707 2.46538C4.67553 2.31287 4.96247 2.19397 5.25964 2.112C5.57032 2.02641 5.79806 1.76374 5.83979 1.44296C5.86097 1.28074 5.88329 1.11904 5.90628 0.960574H6.61789C6.64088 1.119 6.66316 1.28069 6.68429 1.44282C6.72616 1.76374 6.95389 2.02641 7.26444 2.11196C7.5617 2.19388 7.84864 2.31282 8.11714 2.46534C8.39751 2.62465 8.74441 2.5999 9.00082 2.40269C9.12995 2.30343 9.26005 2.20478 9.38919 2.10847L9.8923 2.61163C9.79635 2.74024 9.6977 2.87043 9.59804 3C9.40079 3.2565 9.37626 3.60335 9.53544 3.88363C9.68795 4.15222 9.80685 4.43916 9.88877 4.73634C9.97432 5.04693 10.237 5.27462 10.5578 5.31649C10.72 5.33766 10.8818 5.35994 11.0402 5.38297V6.0945Z" fill="#FEFEFE"/>
</svg>
