<svg width="14" height="14" viewBox="0 0 14 14" fill="none" xmlns="http://www.w3.org/2000/svg">
<path d="M7 8.75C7.46413 8.75 7.90925 8.56563 8.23744 8.23744C8.56563 7.90925 8.75 7.46413 8.75 7C8.75 6.53587 8.56563 6.09075 8.23744 5.76256C7.90925 5.43437 7.46413 5.25 7 5.25C6.53587 5.25 6.09075 5.43437 5.76256 5.76256C5.43437 6.09075 5.25 6.53587 5.25 7C5.25 7.46413 5.43437 7.90925 5.76256 8.23744C6.09075 8.56563 6.53587 8.75 7 8.75Z" stroke="white" stroke-width="1.2" stroke-miterlimit="10" stroke-linecap="round" stroke-linejoin="round"/>
<path d="M1.16675 7.51332V6.48665C1.16675 5.87998 1.66258 5.37832 2.27508 5.37832C3.33091 5.37832 3.76258 4.63165 3.23175 3.71582C2.92841 3.19082 3.10925 2.50832 3.64008 2.20498L4.64925 1.62748C5.11008 1.35332 5.70508 1.51665 5.97925 1.97748L6.04341 2.08832C6.56841 3.00415 7.43175 3.00415 7.96258 2.08832L8.02675 1.97748C8.30092 1.51665 8.89592 1.35332 9.35675 1.62748L10.3659 2.20498C10.8967 2.50832 11.0776 3.19082 10.7742 3.71582C10.2434 4.63165 10.6751 5.37832 11.7309 5.37832C12.3376 5.37832 12.8392 5.87415 12.8392 6.48665V7.51332C12.8392 8.11998 12.3434 8.62165 11.7309 8.62165C10.6751 8.62165 10.2434 9.36832 10.7742 10.2841C11.0776 10.815 10.8967 11.4916 10.3659 11.795L9.35675 12.3725C8.89592 12.6466 8.30092 12.4833 8.02675 12.0225L7.96258 11.9116C7.43758 10.9958 6.57425 10.9958 6.04341 11.9116L5.97925 12.0225C5.70508 12.4833 5.11008 12.6466 4.64925 12.3725L3.64008 11.795C3.38581 11.6486 3.2 11.4073 3.12345 11.124C3.0469 10.8408 3.08584 10.5387 3.23175 10.2841C3.76258 9.36832 3.33091 8.62165 2.27508 8.62165C1.66258 8.62165 1.16675 8.11998 1.16675 7.51332Z" stroke="white" stroke-width="1.2" stroke-miterlimit="10" stroke-linecap="round" stroke-linejoin="round"/>
</svg>
