<svg width="32" height="14" viewBox="0 0 32 14" fill="none" xmlns="http://www.w3.org/2000/svg">
<g clip-path="url(#clip0_1683_8570)">
<path d="M12.8138 2.23828L11.1875 11.782H13.7885L15.4161 2.23828H12.8138Z" fill="#333333"/>
<path d="M9.0062 2.2481L6.45872 8.75661L6.18711 7.77388C5.68471 6.58978 4.25844 4.88923 2.58398 3.81753L4.91337 11.7764L7.66556 11.7717L11.7617 2.24609L9.0062 2.2481Z" fill="#333333"/>
<path d="M5.19931 2.9316C5.04812 2.35025 4.60994 2.17699 4.06606 2.15625H0.033449L0 2.34624C3.13819 3.10754 5.2147 4.94188 6.07635 7.14751L5.19931 2.9316Z" fill="#333333"/>
<path d="M20.6876 4.06778C21.5385 4.0544 22.1553 4.24038 22.6343 4.43304L22.8691 4.54342L23.221 2.47494C22.7059 2.2816 21.8984 2.07422 20.8909 2.07422C18.3207 2.07422 16.5091 3.36869 16.4951 5.22378C16.4784 6.59452 17.7855 7.35983 18.773 7.81674C19.7865 8.28503 20.1263 8.58273 20.1216 9.00084C20.1136 9.63972 19.3135 9.93273 18.5662 9.93273C17.5246 9.93273 16.9714 9.7889 16.1171 9.433L15.7819 9.28047L15.416 11.4165C16.0248 11.6834 17.148 11.9129 18.314 11.925C21.0482 11.925 22.825 10.6459 22.8437 8.66367C22.8551 7.57926 22.1613 6.75173 20.6581 6.07271C19.7483 5.62985 19.1917 5.3355 19.1971 4.88862C19.1971 4.49191 19.6694 4.06778 20.6876 4.06778Z" fill="#333333"/>
<path d="M29.8945 2.24805H27.8849C27.2607 2.24805 26.7965 2.41797 26.5222 3.04012L22.6602 11.7864H25.3916C25.3916 11.7864 25.8371 10.6103 25.9382 10.3527C26.2372 10.3527 28.891 10.3568 29.269 10.3568C29.3466 10.6899 29.5861 11.7864 29.5861 11.7864H31.9991L29.8945 2.24805ZM26.6867 8.39932C26.9008 7.85143 27.723 5.7321 27.723 5.7321C27.709 5.75819 27.9351 5.18019 28.0695 4.82094L28.2448 5.64379C28.2448 5.64379 28.7432 7.92234 28.8476 8.39932H26.6867Z" fill="#333333"/>
</g>
<defs>
<clipPath id="clip0_1683_8570">
<rect width="32" height="14" fill="white"/>
</clipPath>
</defs>
</svg>
