<svg width="22" height="21" viewBox="0 0 22 21" fill="none" xmlns="http://www.w3.org/2000/svg">
<path d="M0.330078 21C0.330078 18.8783 1.17293 16.8434 2.67322 15.3431C4.17351 13.8429 6.20835 13 8.33008 13C10.4518 13 12.4866 13.8429 13.9869 15.3431C15.4872 16.8434 16.3301 18.8783 16.3301 21H14.3301C14.3301 19.4087 13.6979 17.8826 12.5727 16.7574C11.4475 15.6321 9.92138 15 8.33008 15C6.73878 15 5.21266 15.6321 4.08744 16.7574C2.96222 17.8826 2.33008 19.4087 2.33008 21H0.330078ZM8.33008 12C5.01508 12 2.33008 9.315 2.33008 6C2.33008 2.685 5.01508 0 8.33008 0C11.6451 0 14.3301 2.685 14.3301 6C14.3301 9.315 11.6451 12 8.33008 12ZM8.33008 10C10.5401 10 12.3301 8.21 12.3301 6C12.3301 3.79 10.5401 2 8.33008 2C6.12008 2 4.33008 3.79 4.33008 6C4.33008 8.21 6.12008 10 8.33008 10ZM16.6141 13.703C18.0194 14.3359 19.2121 15.3612 20.0487 16.6557C20.8853 17.9502 21.3302 19.4587 21.3301 21H19.3301C19.3303 19.844 18.9966 18.7125 18.3692 17.7416C17.7417 16.7707 16.8472 16.0017 15.7931 15.527L16.6131 13.703H16.6141ZM15.9261 2.413C16.9336 2.8283 17.795 3.53354 18.4011 4.43923C19.0071 5.34492 19.3305 6.41024 19.3301 7.5C19.3305 8.87233 18.8178 10.1952 17.8926 11.2088C16.9675 12.2224 15.6967 12.8535 14.3301 12.978V10.965C15.071 10.8589 15.7584 10.518 16.2914 9.99246C16.8243 9.4669 17.1748 8.78432 17.2912 8.04493C17.4077 7.30555 17.2841 6.5483 16.9385 5.88435C16.5929 5.22041 16.0435 4.68475 15.3711 4.356L15.9261 2.413Z" fill="#002841" fill-opacity="0.5"/>
</svg>
