<svg width="21" height="19" viewBox="0 0 21 19" fill="none" xmlns="http://www.w3.org/2000/svg">
<path d="M20 4.5H21V14.5H20V17.5C20 17.7652 19.8946 18.0196 19.7071 18.2071C19.5196 18.3946 19.2652 18.5 19 18.5H1C0.734783 18.5 0.480429 18.3946 0.292893 18.2071C0.105357 18.0196 0 17.7652 0 17.5V1.5C0 1.23478 0.105357 0.98043 0.292893 0.792893C0.480429 0.605357 0.734783 0.5 1 0.5H19C19.2652 0.5 19.5196 0.605357 19.7071 0.792893C19.8946 0.98043 20 1.23478 20 1.5V4.5ZM18 14.5H12C10.6739 14.5 9.40215 13.9732 8.46446 13.0355C7.52678 12.0979 7 10.8261 7 9.5C7 8.17392 7.52678 6.90215 8.46446 5.96447C9.40215 5.02678 10.6739 4.5 12 4.5H18V2.5H2V16.5H18V14.5ZM19 12.5V6.5H12C11.2043 6.5 10.4413 6.81607 9.87868 7.37868C9.31607 7.94129 9 8.70435 9 9.5C9 10.2956 9.31607 11.0587 9.87868 11.6213C10.4413 12.1839 11.2043 12.5 12 12.5H19ZM12 8.5H15V10.5H12V8.5Z" fill="#002841" fill-opacity="0.5"/>
</svg>
