<svg width="14" height="13" viewBox="0 0 14 13" fill="none" xmlns="http://www.w3.org/2000/svg">
<path d="M11.9906 9.54638C11.9906 10.3065 11.3745 10.9227 10.6144 10.9227C10.0982 10.9227 9.64886 10.6385 9.41325 10.2182H6.67088C6.36579 11.7091 5.06528 12.8414 3.49681 12.8884C0.525824 12.6766 -0.137754 10.1921 0.11286 8.90569C0.363473 7.61925 1.35381 6.59445 2.6214 6.29297L3.0064 7.58452C2.08908 7.76566 1.39481 8.57636 1.39481 9.54638C1.39481 10.649 2.29208 11.5463 3.39501 11.5463C4.49794 11.5463 5.39489 10.649 5.39489 9.54638V8.87426H9.41322C9.64883 8.45422 10.0982 8.17011 10.6143 8.17011C11.3745 8.17011 11.9906 8.78624 11.9906 9.54638Z" fill="white"/>
<path d="M13.9434 8.91453C14.2859 10.6275 13.0609 13.0315 10.516 12.9137C9.66245 12.8742 8.83736 12.5092 8.23409 11.8706L9.1601 10.8913C9.77594 11.5955 10.825 11.7913 11.6651 11.3063C12.6201 10.7551 12.9485 9.52943 12.3973 8.57411C11.8459 7.61908 10.6202 7.29064 9.66517 7.84211L9.08317 8.17802L7.07429 4.69801C6.59259 4.70399 6.12163 4.45701 5.86388 4.01001C5.48367 3.35167 5.70939 2.51011 6.36775 2.12987C7.02609 1.74994 7.86766 1.97537 8.2479 2.63374C8.50568 3.08071 8.48442 3.61212 8.23802 4.02617L9.60919 6.4012C11.084 5.90961 12.7542 6.50477 13.5611 7.90231C13.7476 8.22565 13.8739 8.56723 13.9434 8.91453Z" fill="white"/>
<path d="M4.60642 10.2846C4.86423 9.83757 4.84257 9.30625 4.59625 8.89222L6.60364 5.41146L6.0216 5.0758C5.06623 4.52485 4.73725 3.29935 5.28822 2.344C5.8392 1.38866 7.06468 1.05967 8.02002 1.61062C8.86025 2.09519 9.21567 3.10142 8.9144 3.98685L10.2255 4.29838C10.6577 2.84836 10.058 1.23468 8.69134 0.446576C7.0941 -0.474616 5.04528 0.0754176 4.12412 1.67265C3.31791 3.07062 3.63858 4.81449 4.80209 5.84545L3.43217 8.22085C2.95045 8.21498 2.47972 8.46236 2.22188 8.90941C1.84216 9.56787 2.06808 10.4095 2.72656 10.7893C3.38501 11.169 4.22664 10.9431 4.60642 10.2846Z" fill="white"/>
</svg>
