<svg width="11" height="13" viewBox="0 0 11 13" fill="none" xmlns="http://www.w3.org/2000/svg">
<path fill-rule="evenodd" clip-rule="evenodd" d="M7.39637 4.72115L6.2549 8.04787L6.26098 8.04871L5.09613 11.4012L6.11139 11.5419L7.13781 8.53972L8.39697 4.79868L8.40299 4.79887L9.42555 1.78394L8.44849 1.64859L7.39133 4.72046L7.39637 4.72115ZM5.08529 4.40101L5.07576 4.39969L3.94765 7.72826L3.93623 7.72667L2.80549 11.0839L1.79074 10.9433L2.82005 7.97396L2.82594 7.97422L4.02017 4.47563L4.02713 4.47727L5.14372 1.19079L6.12069 1.32613L5.08529 4.40101ZM6.7586 0.947268C6.66217 0.804842 6.54114 0.723542 6.3955 0.703368L5.11329 0.525749C4.99299 0.509083 4.88008 0.532163 4.77458 0.594989C4.66907 0.657815 4.59849 0.748064 4.56283 0.865739L3.59854 3.70395C3.39855 3.65689 3.19539 3.60939 2.98907 3.56144C2.78908 3.51438 2.58997 3.46098 2.39174 3.40126C2.38083 3.38684 2.36271 3.37788 2.33738 3.37437C2.21074 3.35682 2.09423 3.38263 1.98785 3.45179C1.88147 3.52095 1.81045 3.61436 1.77479 3.73204L1.76426 3.80802C1.74672 3.93466 1.76936 4.05073 1.83219 4.15623C1.90222 4.25628 1.99968 4.32141 2.12456 4.35162C2.29473 4.4038 2.46276 4.45316 2.62864 4.49967C2.64983 4.50561 2.67098 4.51151 2.69209 4.51736C2.87854 4.569 3.06815 4.62108 3.26093 4.6736L2.36489 7.29862C2.15964 7.28955 1.95079 7.2832 1.73832 7.27959C1.53307 7.27051 1.32694 7.26777 1.11994 7.27136C0.990667 7.27282 0.878297 7.31533 0.782825 7.39891C0.693685 7.48336 0.640344 7.58891 0.622801 7.71554C0.605259 7.84218 0.63696 7.96273 0.717904 8.0772C0.799725 8.18534 0.913453 8.24949 1.05909 8.26967L1.11607 8.27756C1.18678 8.27812 1.25739 8.2794 1.3279 8.28141C1.40524 8.2836 1.48246 8.28666 1.55955 8.29059C1.71415 8.29265 1.86514 8.29743 2.01253 8.30494L1.10962 10.9097L1.09515 11.0141C1.07761 11.1408 1.10931 11.2613 1.19025 11.3758C1.27841 11.4848 1.3953 11.5494 1.54093 11.5696L2.84214 11.7498C2.95611 11.7656 3.06541 11.7453 3.17004 11.6888C3.27555 11.6259 3.34569 11.5389 3.38047 11.4275L4.3835 8.44946L5.38077 8.58761L4.41487 11.3675L4.4004 11.472C4.38286 11.5986 4.41139 11.7187 4.48601 11.8323C4.56783 11.9405 4.68156 12.0046 4.82719 12.0248L6.14739 12.2077C6.2677 12.2243 6.377 12.204 6.47529 12.1466C6.5808 12.0838 6.65094 11.9967 6.68572 11.8854L7.66215 9.02948C7.90013 9.08181 8.13767 9.1373 8.37477 9.19596C8.61188 9.25462 8.84538 9.316 9.07527 9.38012L9.15125 9.39064C9.27156 9.40731 9.3813 9.38379 9.48047 9.32008C9.58685 9.25093 9.65831 9.15435 9.69485 9.03034C9.71239 8.9037 9.69423 8.77857 9.64037 8.65495C9.58651 8.53133 9.48808 8.44993 9.34507 8.41076C9.12784 8.3484 8.90384 8.28833 8.67307 8.23055C8.65784 8.22624 8.6426 8.22196 8.62734 8.21771C8.41849 8.15953 8.20612 8.10646 7.99025 8.05852L8.86203 5.46885C9.10615 5.47686 9.35344 5.4853 9.60389 5.49418C9.85522 5.49673 10.1038 5.49567 10.3497 5.49101C10.4781 5.49589 10.5864 5.45927 10.6747 5.38115C10.7702 5.29757 10.8267 5.19247 10.8442 5.06583C10.8617 4.93919 10.8332 4.81908 10.7586 4.70549C10.6849 4.58557 10.5752 4.51552 10.4295 4.49534L10.3916 4.49008C10.3789 4.48833 10.3654 4.4929 10.3509 4.50381C10.2014 4.49864 10.0475 4.49495 9.88923 4.49273C9.85037 4.49218 9.81124 4.49172 9.77185 4.49136C9.57839 4.49037 9.38852 4.48666 9.20227 4.48022L10.1023 1.8267C10.1049 1.8077 10.1102 1.79231 10.1183 1.78052C10.1264 1.76874 10.1318 1.75335 10.1344 1.73435C10.1511 1.61404 10.1276 1.5043 10.0639 1.40513C9.97375 1.26358 9.85272 1.18228 9.70075 1.16123L8.41854 0.983612C8.29191 0.966069 8.179 0.989149 8.07983 1.05285C7.98066 1.11655 7.91007 1.2068 7.86808 1.3236L6.84738 4.28952L5.8596 4.15269L6.797 1.36883C6.81318 1.34526 6.82389 1.31448 6.82916 1.27649C6.84582 1.15618 6.8223 1.04644 6.7586 0.947268ZM5.51074 7.57952C5.57406 7.58829 5.63966 7.60383 5.70756 7.62615L6.51927 5.26048C6.46862 5.25347 6.41436 5.24918 6.35649 5.24761C6.30496 5.24693 6.25387 5.24308 6.20321 5.23606C6.08291 5.21939 5.96937 5.20044 5.8626 5.1792C5.86027 5.17873 5.85794 5.17827 5.8556 5.17781C5.75088 5.15713 5.63968 5.13864 5.522 5.12233L4.71978 7.48931C4.82743 7.50422 4.92918 7.51509 5.02503 7.52192C5.12722 7.52962 5.2258 7.54005 5.32078 7.55321L5.51074 7.57952Z" fill="#89B4CF"/>
</svg>
