<svg width="14" height="14" viewBox="0 0 14 14" fill="none" xmlns="http://www.w3.org/2000/svg">
<g clip-path="url(#clip0_5716_10843)">
<path d="M7.15678 1.86907L12.1256 3.85656C12.3188 3.93386 12.4734 4.16573 12.4734 4.37V6.20294C12.4734 6.50658 12.2249 6.75502 11.9213 6.75502H1.98373C1.68008 6.75502 1.43164 6.50658 1.43164 6.20294V4.37C1.43164 4.16573 1.58623 3.93386 1.77946 3.85656L6.74825 1.86907C6.85866 1.82489 7.04636 1.82489 7.15678 1.86907Z" stroke="#89B4CF" stroke-width="0.700692" stroke-miterlimit="10" stroke-linecap="round" stroke-linejoin="round"/>
<path d="M12.4734 12.8295H1.43164V11.1732C1.43164 10.8695 1.68008 10.6211 1.98373 10.6211H11.9213C12.2249 10.6211 12.4734 10.8695 12.4734 11.1732V12.8295Z" stroke="#89B4CF" stroke-width="0.700692" stroke-miterlimit="10" stroke-linecap="round" stroke-linejoin="round"/>
<path d="M2.53467 10.6225V6.75781" stroke="#89B4CF" stroke-width="0.700692" stroke-miterlimit="10" stroke-linecap="round" stroke-linejoin="round"/>
<path d="M4.74438 10.6225V6.75781" stroke="#89B4CF" stroke-width="0.700692" stroke-miterlimit="10" stroke-linecap="round" stroke-linejoin="round"/>
<path d="M6.95215 10.6225V6.75781" stroke="#89B4CF" stroke-width="0.700692" stroke-miterlimit="10" stroke-linecap="round" stroke-linejoin="round"/>
<path d="M9.15991 10.6225V6.75781" stroke="#89B4CF" stroke-width="0.700692" stroke-miterlimit="10" stroke-linecap="round" stroke-linejoin="round"/>
<path d="M11.3691 10.6225V6.75781" stroke="#89B4CF" stroke-width="0.700692" stroke-miterlimit="10" stroke-linecap="round" stroke-linejoin="round"/>
<path d="M0.878418 12.8281H13.0243" stroke="#89B4CF" stroke-width="0.700692" stroke-miterlimit="10" stroke-linecap="round" stroke-linejoin="round"/>
<path d="M6.95215 5.37501C7.40951 5.37501 7.78028 5.00424 7.78028 4.54688C7.78028 4.08951 7.40951 3.71875 6.95215 3.71875C6.49479 3.71875 6.12402 4.08951 6.12402 4.54688C6.12402 5.00424 6.49479 5.37501 6.95215 5.37501Z" stroke="#89B4CF" stroke-width="0.700692" stroke-miterlimit="10" stroke-linecap="round" stroke-linejoin="round"/>
</g>
<defs>
<clipPath id="clip0_5716_10843">
<rect width="13.2501" height="13.2501" fill="white" transform="translate(0.326904 0.683594)"/>
</clipPath>
</defs>
</svg>
