<svg width="15" height="15" viewBox="0 0 15 15" fill="none" xmlns="http://www.w3.org/2000/svg">
<path d="M12.8052 2.03125H2.29478C2.00452 2.03159 1.72624 2.14705 1.521 2.3523C1.31575 2.55754 1.20029 2.83582 1.19995 3.12608V9.69507C1.20029 9.98533 1.31575 10.2636 1.521 10.4689C1.72624 10.6741 2.00452 10.7896 2.29478 10.7899H5.36031V11.6942C5.22554 11.7311 5.10219 11.8012 5.00157 11.8981C4.90096 11.995 4.82631 12.1157 4.78448 12.249C4.74265 12.3823 4.73498 12.5239 4.76218 12.661C4.78938 12.798 4.85057 12.926 4.94014 13.0333L5.01796 13.1265C5.15579 13.3488 5.34792 13.5323 5.57627 13.6598C5.80462 13.7874 6.06167 13.8547 6.32321 13.8554H9.08274C9.373 13.8551 9.65128 13.7396 9.85652 13.5344C10.0618 13.3291 10.1772 13.0509 10.1776 12.7606V10.7899H12.8052C13.0954 10.7896 13.3737 10.6741 13.5789 10.4689C13.7842 10.2636 13.8997 9.98533 13.9 9.69507V3.12608C13.8997 2.83582 13.7842 2.55754 13.5789 2.3523C13.3737 2.14705 13.0954 2.03159 12.8052 2.03125ZM2.29478 2.46918H12.8052C12.9793 2.46937 13.1463 2.53864 13.2695 2.66179C13.3926 2.78495 13.4619 2.95192 13.4621 3.12608V3.56401H1.63788V3.12608C1.63807 2.95192 1.70735 2.78495 1.8305 2.66179C1.95365 2.53864 2.12062 2.46937 2.29478 2.46918ZM13.4621 4.00195V4.65885H1.63788V4.00195H13.4621ZM9.73964 12.7606C9.73944 12.9348 9.67017 13.1017 9.54702 13.2249C9.42387 13.348 9.2569 13.4173 9.08274 13.4175H6.32321C6.13424 13.4169 5.94859 13.3677 5.78414 13.2746C5.61969 13.1815 5.48198 13.0477 5.38427 12.8859C5.37846 12.8761 5.37181 12.8668 5.36438 12.8581L5.27605 12.7523C5.22788 12.6946 5.19715 12.6244 5.18747 12.5498C5.17778 12.4753 5.18954 12.3996 5.22137 12.3315C5.25319 12.2635 5.30377 12.2059 5.36716 12.1655C5.43055 12.1252 5.50413 12.1037 5.57928 12.1037C5.63735 12.1037 5.69305 12.0806 5.73411 12.0396C5.77517 11.9985 5.79824 11.9428 5.79824 11.8847V8.92869C5.79824 8.84158 5.83285 8.75803 5.89444 8.69644C5.95604 8.63484 6.03958 8.60024 6.12669 8.60024C6.2138 8.60024 6.29734 8.63484 6.35894 8.69644C6.42054 8.75803 6.45514 8.84158 6.45514 8.92869V10.7899C6.45514 10.848 6.47821 10.9037 6.51928 10.9447C6.56034 10.9858 6.61603 11.0089 6.67411 11.0089C6.73218 11.0089 6.78788 10.9858 6.82894 10.9447C6.87001 10.9037 6.89307 10.848 6.89307 10.7899V10.133H7.54997V10.7899C7.54997 10.848 7.57304 10.9037 7.61411 10.9447C7.65517 10.9858 7.71087 11.0089 7.76894 11.0089C7.82701 11.0089 7.88271 10.9858 7.92377 10.9447C7.96484 10.9037 7.98791 10.848 7.98791 10.7899V10.133H8.6448V10.7899C8.6448 10.848 8.66787 10.9037 8.70894 10.9447C8.75 10.9858 8.8057 11.0089 8.86377 11.0089C8.92184 11.0089 8.97754 10.9858 9.0186 10.9447C9.05967 10.9037 9.08274 10.848 9.08274 10.7899V10.133C9.2569 10.1332 9.42387 10.2025 9.54702 10.3256C9.67017 10.4488 9.73944 10.6157 9.73964 10.7899V12.7606ZM12.8052 10.352H10.0848C9.99958 10.157 9.85945 9.99105 9.68151 9.8744C9.50357 9.75775 9.29551 9.69544 9.08274 9.69507H6.89307V8.92869C6.89307 8.72543 6.81233 8.5305 6.66861 8.38677C6.52488 8.24305 6.32995 8.16231 6.12669 8.16231C5.92344 8.16231 5.7285 8.24305 5.58478 8.38677C5.44105 8.5305 5.36031 8.72543 5.36031 8.92869V10.352H2.29478C2.12062 10.3518 1.95365 10.2825 1.8305 10.1594C1.70735 10.0362 1.63807 9.86923 1.63788 9.69507V5.09678H13.4621V9.69507C13.4619 9.86923 13.3926 10.0362 13.2695 10.1594C13.1463 10.2825 12.9793 10.3518 12.8052 10.352Z" fill="#041926"/>
<path d="M6.01725 6.19184H6.67415C6.73222 6.19184 6.78792 6.16877 6.82898 6.12771C6.87005 6.08664 6.89312 6.03095 6.89312 5.97287C6.89312 5.9148 6.87005 5.8591 6.82898 5.81804C6.78792 5.77698 6.73222 5.75391 6.67415 5.75391H6.01725C5.84309 5.7541 5.67611 5.82337 5.55296 5.94652C5.42981 6.06967 5.36054 6.23664 5.36035 6.41081V7.0677C5.36054 7.24187 5.42981 7.40884 5.55296 7.53199C5.67611 7.65514 5.84309 7.72441 6.01725 7.7246H6.67415C6.73222 7.7246 6.78792 7.70153 6.82898 7.66047C6.87005 7.6194 6.89312 7.56371 6.89312 7.50564C6.89312 7.44756 6.87005 7.39187 6.82898 7.3508C6.78792 7.30974 6.73222 7.28667 6.67415 7.28667H6.01725C5.95919 7.28664 5.90351 7.26355 5.86246 7.2225C5.8214 7.18144 5.79832 7.12577 5.79828 7.0677V6.41081C5.79832 6.35274 5.8214 6.29707 5.86246 6.25601C5.90351 6.21495 5.95919 6.19187 6.01725 6.19184Z" fill="#041926"/>
<path d="M8.73068 5.77171C8.70426 5.76034 8.67586 5.75429 8.6471 5.75392C8.61835 5.75355 8.5898 5.75886 8.5631 5.76955C8.5364 5.78024 8.51207 5.79609 8.49151 5.8162C8.47095 5.83631 8.45456 5.86027 8.44329 5.88673L7.98759 6.9497L7.5319 5.88673C7.50805 5.83489 7.4649 5.7944 7.41164 5.7739C7.35838 5.7534 7.29922 5.7545 7.24676 5.77697C7.19431 5.79944 7.15269 5.8415 7.13079 5.8942C7.10888 5.9469 7.10842 6.00607 7.12949 6.0591L7.78639 7.59187C7.80324 7.63127 7.83129 7.66486 7.86706 7.68846C7.90283 7.71207 7.94474 7.72465 7.98759 7.72465C8.03045 7.72465 8.07236 7.71207 8.10813 7.68846C8.1439 7.66486 8.17195 7.63127 8.1888 7.59187L8.8457 6.0591C8.85703 6.03268 8.86304 6.00428 8.86339 5.97554C8.86374 5.94679 8.85842 5.91826 8.84774 5.89157C8.83706 5.86488 8.82122 5.84056 8.80114 5.81999C8.78105 5.79942 8.75711 5.78302 8.73068 5.77171Z" fill="#041926"/>
<path d="M10.7014 5.77173C10.675 5.76035 10.6466 5.7543 10.6178 5.75392C10.589 5.75355 10.5605 5.75886 10.5338 5.76955C10.5071 5.78023 10.4828 5.79609 10.4622 5.8162C10.4416 5.83631 10.4253 5.86029 10.414 5.88675L9.9583 6.94972L9.50261 5.88675C9.47875 5.83491 9.4356 5.79442 9.38235 5.77392C9.32909 5.75342 9.26993 5.75452 9.21747 5.77699C9.16501 5.79946 9.1234 5.84152 9.10149 5.89422C9.07958 5.94692 9.07912 6.00609 9.10019 6.05912L9.75709 7.59189C9.77394 7.63129 9.80199 7.66488 9.83776 7.68848C9.87353 7.71209 9.91544 7.72467 9.9583 7.72467C10.0012 7.72467 10.0431 7.71209 10.0788 7.68848C10.1146 7.66488 10.1427 7.63129 10.1595 7.59189L10.8164 6.05912C10.8277 6.0327 10.8337 6.00431 10.8341 5.97556C10.8344 5.94681 10.8291 5.91828 10.8184 5.89159C10.8078 5.8649 10.7919 5.84058 10.7718 5.82001C10.7518 5.79945 10.7278 5.78304 10.7014 5.77173Z" fill="#041926"/>
<path d="M12.5863 8.16406H11.4914C11.4334 8.16406 11.3777 8.18713 11.3366 8.2282C11.2955 8.26926 11.2725 8.32496 11.2725 8.38303V9.47786C11.2725 9.53593 11.2955 9.59163 11.3366 9.63269C11.3777 9.67376 11.4334 9.69683 11.4914 9.69683H12.5863C12.6443 9.69683 12.7 9.67376 12.7411 9.63269C12.7822 9.59163 12.8052 9.53593 12.8052 9.47786V8.38303C12.8052 8.32496 12.7822 8.26926 12.7411 8.2282C12.7 8.18713 12.6443 8.16406 12.5863 8.16406ZM12.3673 9.25889H11.7104V8.602H12.3673V9.25889Z" fill="#041926"/>
<path d="M4.26537 5.75391H2.73261C2.61651 5.75406 2.50521 5.80025 2.42312 5.88235C2.34102 5.96444 2.29483 6.07574 2.29468 6.19184V7.0677C2.29483 7.1838 2.34102 7.2951 2.42312 7.3772C2.50521 7.45929 2.61651 7.50548 2.73261 7.50564H4.26537C4.38147 7.50548 4.49277 7.45929 4.57487 7.3772C4.65696 7.2951 4.70315 7.1838 4.70331 7.0677V6.19184C4.70315 6.07574 4.65696 5.96444 4.57487 5.88235C4.49277 5.80025 4.38147 5.75406 4.26537 5.75391ZM4.26537 7.0677H2.73261V6.19184H4.26537V7.0677Z" fill="#041926"/>
</svg>
