<svg width="15" height="11" viewBox="0 0 15 11" fill="none" xmlns="http://www.w3.org/2000/svg">
<path d="M13.0626 0.628906H1.35213C0.716344 0.629623 0.201156 1.14481 0.200439 1.7806V9.66912C0.201156 10.3049 0.716344 10.8201 1.35213 10.8208H13.0626C13.6984 10.8201 14.2136 10.3049 14.2143 9.66912V1.7806C14.2136 1.14481 13.6984 0.629623 13.0626 0.628906ZM1.35213 1.26589H13.0626C13.3469 1.26589 13.5773 1.49631 13.5773 1.78057V2.53989H0.837423V1.7806C0.837423 1.49634 1.06787 1.26589 1.35213 1.26589ZM13.0626 10.1838H1.35213C1.06787 10.1838 0.837453 9.95338 0.837453 9.66912V3.17687H13.5773V9.66909C13.5773 9.95338 13.3469 10.1838 13.0626 10.1838Z" fill="#041926"/>
</svg>
