<svg width="84" height="84" viewBox="0 0 84 84" fill="none" xmlns="http://www.w3.org/2000/svg">
<circle cx="41.855" cy="41.855" r="40.8205" fill="white" stroke="#D4D6E4" stroke-width="2.06897"/>
<g clip-path="url(#clip0_6039_11108)">
<path d="M99.131 35.1245V50.6267H93.569V36.4164C93.569 32.7562 91.6438 30.8184 88.4349 30.8184C85.226 30.8184 82.8729 32.9715 82.8729 36.8471V50.4113H77.3109V26.297H82.2311L82.8729 29.3114C84.5843 26.943 87.3652 25.6511 90.788 25.6511C95.4944 25.6511 99.131 29.5266 99.131 35.1245ZM103.623 38.3541C103.623 31.0338 109.399 25.4358 116.673 25.4358C123.946 25.4358 129.722 30.8184 129.722 38.1389C129.722 45.4593 123.732 51.0573 116.673 51.0573C109.399 51.0573 103.623 45.6746 103.623 38.3541ZM124.16 38.3541C124.16 33.8327 120.951 30.6032 116.673 30.6032C112.394 30.6032 109.185 33.8327 109.185 38.3541C109.185 42.8756 112.394 46.1052 116.673 46.1052C120.951 46.1052 124.16 42.8756 124.16 38.3541ZM170.796 34.9093V50.6267H165.019V36.4164C165.019 32.7562 163.094 30.8184 160.313 30.8184C157.318 30.8184 155.179 32.9715 155.179 36.8471V50.6267H149.617V36.4164C149.617 32.7562 147.691 30.8184 144.91 30.8184C141.916 30.8184 139.776 32.9715 139.776 36.8471V50.6267H134.214V26.297H138.921L139.562 29.3114C141.274 27.1583 143.841 25.6511 146.836 25.6511C150.045 25.6511 152.825 27.3736 154.11 30.3879C155.607 27.5888 158.602 25.6511 162.239 25.6511C167.159 25.6511 170.796 29.3114 170.796 34.9093ZM203.097 38.3541C203.097 45.8899 197.536 51.0573 190.904 51.0573C187.267 51.0573 184.273 49.5501 182.133 46.9665L181.491 50.6267H176.571V16.1776L182.133 15.5317V29.7419C184.059 27.1582 187.053 25.8664 190.69 25.8664C197.75 25.6511 203.097 30.8184 203.097 38.3541ZM197.536 38.3541C197.536 33.8327 194.327 30.6032 190.262 30.6032C186.197 30.6032 182.774 33.8327 182.774 38.3541C182.774 42.8756 186.197 46.1052 190.262 46.1052C194.327 46.1052 197.536 42.8756 197.536 38.3541ZM227.271 26.297H232.191V50.6267H227.271L226.629 46.9665C224.703 49.7654 221.494 51.2726 217.859 51.2726C211.227 51.2726 205.879 46.1052 205.879 38.5695C205.879 31.0338 211.227 25.8664 218.073 25.8664C221.709 25.8664 224.703 27.3736 226.843 29.9573L227.271 26.297ZM226.416 38.3541C226.416 33.8327 222.993 30.6032 218.928 30.6032C214.863 30.6032 211.654 33.8327 211.654 38.3541C211.654 42.8756 214.863 46.1052 218.928 46.1052C222.993 46.1052 226.416 42.8756 226.416 38.3541ZM45.4364 35.5552L49.7149 32.9715L53.9933 30.3879L58.2718 27.8042L62.5502 25.2205V15.3164L58.2718 17.9001L53.9933 20.4838L49.7149 23.0674L45.4364 25.6511L41.158 28.2347V33.1868L36.8795 30.6032L32.6011 28.0195L28.1087 25.4358L23.8302 22.8521L19.5518 20.2685V30.1725L23.8302 32.7562L28.1087 35.3399L32.3871 37.9236L36.6656 40.5073L40.944 43.091L36.6656 45.6746L32.3871 48.2582L28.1087 50.8419L23.8302 53.4256L19.5518 55.5787V65.4828L23.8302 62.8991L28.1087 60.3154L32.3871 57.7317L36.6656 55.1481L40.944 52.5644V47.6123L45.2225 50.196L49.5009 52.7797L53.7794 55.3634L58.0579 57.9471L62.3364 60.5307V50.6267L58.0579 48.043L53.7794 45.4593L49.5009 42.8756L45.2225 40.2919L40.944 37.7082L45.4364 35.5552Z" fill="#121212"/>
</g>
<defs>
<clipPath id="clip0_6039_11108">
<rect width="45.4946" height="49.1341" fill="white" transform="translate(18.1987 16.375)"/>
</clipPath>
</defs>
</svg>
