<svg width="14" height="14" viewBox="0 0 14 14" fill="none" xmlns="http://www.w3.org/2000/svg">
<path d="M5.62635 11.3607H8.27637C10.4847 11.3607 11.3681 10.4774 11.3681 8.26905V5.61903C11.3681 3.41068 10.4847 2.52734 8.27637 2.52734H5.62635C3.418 2.52734 2.53467 3.41068 2.53467 5.61903V8.26905C2.53467 10.4774 3.418 11.3607 5.62635 11.3607Z" stroke="#89B4CF" stroke-width="0.700692" stroke-linecap="round" stroke-linejoin="round"/>
<path d="M6.12346 9.70057H7.77972C9.15993 9.70057 9.71204 9.14845 9.71204 7.76825V6.11199C9.71204 4.73177 9.15993 4.17969 7.77972 4.17969H6.12346C4.74324 4.17969 4.19116 4.73177 4.19116 6.11199V7.76825C4.19116 9.14845 4.74324 9.70057 6.12346 9.70057Z" stroke="#89B4CF" stroke-width="0.700692" stroke-linecap="round" stroke-linejoin="round"/>
<path d="M4.74902 2.52605V1.42188" stroke="#89B4CF" stroke-width="0.700692" stroke-linecap="round" stroke-linejoin="round"/>
<path d="M6.95215 2.52605V1.42188" stroke="#89B4CF" stroke-width="0.700692" stroke-linecap="round" stroke-linejoin="round"/>
<path d="M9.15991 2.52605V1.42188" stroke="#89B4CF" stroke-width="0.700692" stroke-linecap="round" stroke-linejoin="round"/>
<path d="M11.3691 4.73438H12.4733" stroke="#89B4CF" stroke-width="0.700692" stroke-linecap="round" stroke-linejoin="round"/>
<path d="M11.3691 6.94141H12.4733" stroke="#89B4CF" stroke-width="0.700692" stroke-linecap="round" stroke-linejoin="round"/>
<path d="M11.3691 9.14844H12.4733" stroke="#89B4CF" stroke-width="0.700692" stroke-linecap="round" stroke-linejoin="round"/>
<path d="M9.15991 11.3594V12.4635" stroke="#89B4CF" stroke-width="0.700692" stroke-linecap="round" stroke-linejoin="round"/>
<path d="M6.95679 11.3594V12.4635" stroke="#89B4CF" stroke-width="0.700692" stroke-linecap="round" stroke-linejoin="round"/>
<path d="M4.74902 11.3594V12.4635" stroke="#89B4CF" stroke-width="0.700692" stroke-linecap="round" stroke-linejoin="round"/>
<path d="M1.43164 4.73438H2.53582" stroke="#89B4CF" stroke-width="0.700692" stroke-linecap="round" stroke-linejoin="round"/>
<path d="M1.43164 6.94141H2.53582" stroke="#89B4CF" stroke-width="0.700692" stroke-linecap="round" stroke-linejoin="round"/>
<path d="M1.43164 9.14844H2.53582" stroke="#89B4CF" stroke-width="0.700692" stroke-linecap="round" stroke-linejoin="round"/>
</svg>
