<svg width="15" height="9" viewBox="0 0 15 9" fill="none" xmlns="http://www.w3.org/2000/svg">
<path d="M15 4.49129C15 4.38282 14.9344 4.2388 14.8678 4.16891L11.1179 0.18445C10.9428 0.00344151 10.6592 -0.0175352 10.455 0.166169C10.2726 0.330396 10.268 0.650695 10.4368 0.829032L13.447 4.02244H0.468752C0.20986 4.02244 0 4.23231 0 4.4912C0 4.75009 0.20986 4.95997 0.468752 4.95997H13.447L10.4368 8.1534C10.268 8.33171 10.28 8.64413 10.455 8.81624C10.6399 8.99792 10.9455 8.98175 11.1179 8.79795L14.8678 4.81351C14.978 4.70544 14.9981 4.60135 15 4.49129Z" fill="#25303A"/>
</svg>
