<svg width="15" height="15" viewBox="0 0 15 15" fill="none" xmlns="http://www.w3.org/2000/svg">
<g clip-path="url(#clip0_1683_8735)">
<path d="M7.66699 1C4.35366 1 1.66699 3.68667 1.66699 7H-0.333008L2.26033 9.59333L2.30699 9.68667L5.00033 7H3.00033C3.00033 4.42 5.08699 2.33333 7.66699 2.33333C10.247 2.33333 12.3337 4.42 12.3337 7C12.3337 9.58 10.247 11.6667 7.66699 11.6667C6.38033 11.6667 5.21366 11.14 4.37366 10.2933L3.42699 11.24C4.51366 12.3267 6.00699 13 7.66699 13C10.9803 13 13.667 10.3133 13.667 7C13.667 3.68667 10.9803 1 7.66699 1ZM7.00033 4.33333V7.66667L9.83366 9.34667L10.347 8.49333L8.00033 7.1V4.33333H7.00033Z" fill="#FEFEFE"/>
</g>
<defs>
<clipPath id="clip0_1683_8735">
<rect width="16" height="16" fill="white" transform="translate(-1 -1)"/>
</clipPath>
</defs>
</svg>
