<svg width="144" height="135" viewBox="0 0 144 135" fill="none" xmlns="http://www.w3.org/2000/svg">
<circle cx="83.5741" cy="59.7831" r="59.7831" fill="#F1F1F1"/>
<path d="M73.5613 37.1624L73.9943 37.4124L74.2443 36.9794L75.8953 34.1198C78.0128 30.4522 82.7025 29.1956 86.3701 31.3131C90.0376 33.4306 91.2942 38.1203 89.1767 41.7878L87.5258 44.6474L87.2758 45.0804L87.7088 45.3304C100.437 52.6788 104.797 68.9538 97.449 81.6817L81.113 109.977C79.0553 113.541 80.2764 118.098 83.8404 120.156C84.2662 120.401 84.4121 120.946 84.1663 121.372L79.4313 129.573C79.0171 130.29 78.0997 130.536 77.3823 130.122L1.98181 86.5896C1.26437 86.1753 1.01856 85.258 1.43277 84.5405L6.08089 76.4897C6.37472 75.9808 7.02551 75.8064 7.53446 76.1003L8.15889 76.4608C11.7936 78.5593 16.4414 77.3139 18.5399 73.6792L33.4117 47.9205C41.528 33.8627 59.5036 29.0462 73.5613 37.1624Z" fill="white" stroke="#D9DBEA"/>
<mask id="path-3-inside-1_6313_11994" fill="white">
<path d="M44.7108 114.246C43.2358 116.8 42.8361 119.836 43.5996 122.686C44.3631 125.535 46.2272 127.964 48.7818 129.439C51.3365 130.914 54.3724 131.314 57.2218 130.55C60.0711 129.787 62.5005 127.923 63.9754 125.368L54.3431 119.807L44.7108 114.246Z"/>
</mask>
<path d="M44.7108 114.246C43.2358 116.8 42.8361 119.836 43.5996 122.686C44.3631 125.535 46.2272 127.964 48.7818 129.439C51.3365 130.914 54.3724 131.314 57.2218 130.55C60.0711 129.787 62.5005 127.923 63.9754 125.368L54.3431 119.807L44.7108 114.246Z" fill="#F7F7F7" stroke="#D9DBEA" stroke-width="2" mask="url(#path-3-inside-1_6313_11994)"/>
<circle cx="42.2133" cy="16.336" r="4.51849" fill="#F7F7F7"/>
<circle cx="115.204" cy="72.6439" r="4.01849" fill="#F7F7F7" stroke="#D9DBEA"/>
<circle cx="12.3207" cy="61.521" r="4.01849" stroke="#D9DBEA"/>
</svg>
