<svg width="14" height="14" viewBox="0 0 14 14" fill="none" xmlns="http://www.w3.org/2000/svg">
<path d="M7.33284 5.66651C7.33284 4.56651 6.43284 3.66651 5.33284 3.66651C4.23284 3.66651 3.33284 4.56651 3.33284 5.66651C3.33284 6.76651 4.23284 7.66651 5.33284 7.66651C6.43284 7.66651 7.33284 6.76651 7.33284 5.66651ZM5.33284 6.33318C4.96617 6.33318 4.66617 6.03318 4.66617 5.66651C4.66617 5.29984 4.96617 4.99984 5.33284 4.99984C5.6995 4.99984 5.99951 5.29984 5.99951 5.66651C5.99951 6.03318 5.6995 6.33318 5.33284 6.33318ZM9.66617 7.66651C10.4062 7.66651 10.9995 7.07318 10.9995 6.33318C10.9995 5.59318 10.4062 4.99984 9.66617 4.99984C8.92617 4.99984 8.32617 5.59318 8.33284 6.33318C8.33284 7.07318 8.92617 7.66651 9.66617 7.66651ZM6.99284 0.339844C3.31284 0.339844 0.326172 3.32651 0.326172 7.00651C0.326172 10.6865 3.31284 13.6732 6.99284 13.6732C10.6728 13.6732 13.6595 10.6865 13.6595 7.00651C13.6595 3.32651 10.6728 0.339844 6.99284 0.339844ZM2.89284 10.4132C3.34617 10.0532 4.40617 9.67318 5.33284 9.67318C5.37951 9.67318 5.43284 9.67984 5.48617 9.67984C5.64617 9.25318 5.93284 8.81984 6.35284 8.43984C5.97951 8.37318 5.62617 8.33318 5.33284 8.33318C4.46617 8.33318 3.07284 8.63318 2.17951 9.28651C1.84617 8.59318 1.65951 7.81984 1.65951 6.99984C1.65951 4.05984 4.05284 1.66651 6.99284 1.66651C9.93284 1.66651 12.3262 4.05984 12.3262 6.99984C12.3262 7.79984 12.1462 8.55984 11.8262 9.24651C11.1595 8.85318 10.2528 8.66651 9.66617 8.66651C8.65284 8.66651 6.66617 9.20651 6.66617 10.4665V12.3198C5.15284 12.2332 3.80617 11.5132 2.89284 10.4132Z" fill="#27AE60"/>
</svg>
