<svg width="27" height="26" viewBox="0 0 27 26" fill="none" xmlns="http://www.w3.org/2000/svg">
<path d="M13.8829 26C6.73728 26 0.922852 20.1686 0.922852 13C0.922852 5.83238 6.73728 0 13.8829 0C21.0294 0 26.8429 5.83238 26.8429 13C26.8429 20.1686 21.0294 26 13.8829 26ZM13.8829 2.01393C7.84354 2.01393 2.93059 6.94205 2.93059 13C2.93059 19.0579 7.84354 23.9861 13.8829 23.9861C19.9222 23.9861 24.8351 19.0569 24.8351 13C24.8351 6.94205 19.9222 2.01393 13.8829 2.01393Z" fill="#EB5757"/>
<g clip-path="url(#clip0_4786_15507)">
<path d="M19.25 8.8075L18.1925 7.75L14 11.9425L9.8075 7.75L8.75 8.8075L12.9425 13L8.75 17.1925L9.8075 18.25L14 14.0575L18.1925 18.25L19.25 17.1925L15.0575 13L19.25 8.8075Z" fill="#EB5757"/>
</g>
<defs>
<clipPath id="clip0_4786_15507">
<rect width="18" height="18" fill="white" transform="translate(5 4)"/>
</clipPath>
</defs>
</svg>
