<svg width="43" height="43" viewBox="0 0 43 43" fill="none" xmlns="http://www.w3.org/2000/svg">
<circle cx="21.5" cy="21.5" r="20.5" stroke="#A17A00" stroke-width="2"/>
<path d="M22.8933 13.6034L22.5352 26.1887H19.781L19.4228 13.6034H22.8933ZM19.324 30.0668C19.324 29.581 19.4887 29.1734 19.818 28.8441C20.1556 28.5065 20.6085 28.3377 21.1766 28.3377C21.7447 28.3377 22.1935 28.5065 22.5228 28.8441C22.8604 29.1734 23.0292 29.581 23.0292 30.0668C23.0292 30.5444 22.8604 30.9478 22.5228 31.2772C22.1935 31.6065 21.7447 31.7712 21.1766 31.7712C20.6085 31.7712 20.1556 31.6065 19.818 31.2772C19.4887 30.9478 19.324 30.5444 19.324 30.0668Z" fill="#A17A00"/>
</svg>
