<svg width="16" height="17" viewBox="0 0 16 17" fill="none" xmlns="http://www.w3.org/2000/svg">
<g clip-path="url(#clip0_1401_809)">
<path d="M14.5158 7.23684V6.75399L14.1744 7.09541L13.3323 7.93752L13.2737 7.9961V8.07894V11.4474C13.2737 12.2671 12.6092 12.9316 11.7895 12.9316H5.05268C4.23298 12.9316 3.56847 12.2671 3.56847 11.4474V4.71052C3.56847 3.89081 4.23298 3.22631 5.05268 3.22631H8.4211H8.50395L8.56253 3.16773L9.40463 2.32563L9.74605 1.9842H9.26321H4.21058C3.16996 1.9842 2.32637 2.82779 2.32637 3.86841V12.2895C2.32637 13.3301 3.16996 14.1737 4.21058 14.1737H12.6316C13.6722 14.1737 14.5158 13.3301 14.5158 12.2895V7.23684Z" fill="#27AE60" stroke="#27AE60" stroke-width="0.4"/>
<path d="M15.9999 0.5H11.7894L13.3052 2.01579L7.57886 7.74211L8.7578 8.92105L14.4841 3.19474L15.9999 4.71053V0.5Z" fill="#27AE60"/>
</g>
<defs>
<clipPath id="clip0_1401_809">
<rect width="30" height="30" fill="white" transform="translate(0 0.5)"/>
</clipPath>
</defs>
</svg>
