<svg width="16" height="16" viewBox="0 0 16 16" fill="none" xmlns="http://www.w3.org/2000/svg">
<g clip-path="url(#clip0_4798_26533)">
<path d="M14.5158 6.73623V6.25338L14.1744 6.5948L13.3323 7.43691L13.2737 7.49549V7.57833V10.9468C13.2737 11.7665 12.6092 12.431 11.7895 12.431H5.05268C4.23298 12.431 3.56847 11.7665 3.56847 10.9468V4.20991C3.56847 3.3902 4.23298 2.7257 5.05268 2.7257H8.4211H8.50395L8.56253 2.66712L9.40463 1.82502L9.74605 1.48359H9.26321H4.21058C3.16996 1.48359 2.32637 2.32718 2.32637 3.3678V11.7889C2.32637 12.8295 3.16996 13.6731 4.21058 13.6731H12.6316C13.6722 13.6731 14.5158 12.8295 14.5158 11.7889V6.73623Z" fill="#2F80ED" stroke="#2F80ED" stroke-width="0.4"/>
<path d="M16.0002 0H11.7896L13.3054 1.51579L7.5791 7.24211L8.75805 8.42105L14.4844 2.69474L16.0002 4.21053V0Z" fill="#2F80ED"/>
</g>
<defs>
<clipPath id="clip0_4798_26533">
<rect width="16" height="16" fill="white"/>
</clipPath>
</defs>
</svg>
