<svg width="24" height="28" viewBox="0 0 24 28" fill="none" xmlns="http://www.w3.org/2000/svg">
<path d="M22 2.66667L20 0.666672L18 2.66667L16 0.666672L14 2.66667L12 0.666672L10 2.66667L8 0.666672L6 2.66667L4 0.666672L2 2.66667L0 0.666672V27.3333L2 25.3333L4 27.3333L6 25.3333L8 27.3333L10 25.3333L12 27.3333L14 25.3333L16 27.3333L18 25.3333L20 27.3333L22 25.3333L24 27.3333V0.666672L22 2.66667ZM21.3333 23.4533H2.66667V4.54667H21.3333V23.4533ZM4 18H20V20.6667H4V18ZM4 12.6667H20V15.3333H4V12.6667ZM4 7.33334H20V10H4V7.33334Z" fill="black"/>
</svg>
