<svg width="38" height="20" viewBox="0 0 38 20" fill="none" xmlns="http://www.w3.org/2000/svg">
<path d="M28.1667 0.833336H20.8333V4.5H28.1667C31.1917 4.5 33.6667 6.975 33.6667 10C33.6667 13.025 31.1917 15.5 28.1667 15.5H20.8333V19.1667H28.1667C33.2267 19.1667 37.3333 15.06 37.3333 10C37.3333 4.94 33.2267 0.833336 28.1667 0.833336ZM17.1667 15.5H9.83332C6.80832 15.5 4.33332 13.025 4.33332 10C4.33332 6.975 6.80832 4.5 9.83332 4.5H17.1667V0.833336H9.83332C4.77332 0.833336 0.666656 4.94 0.666656 10C0.666656 15.06 4.77332 19.1667 9.83332 19.1667H17.1667V15.5ZM11.6667 8.16667H26.3333V11.8333H11.6667V8.16667Z" fill="black"/>
</svg>
