<svg width="12" height="12" viewBox="0 0 12 12" fill="none" xmlns="http://www.w3.org/2000/svg">
<path d="M10.375 1.04102L9.5 0.166016L8.625 1.04102L7.75 0.166016L6.875 1.04102L6 0.166016L5.125 1.04102L4.25 0.166016L3.375 1.04102L2.5 0.166016L1.625 1.04102L0.75 0.166016V11.8327L1.625 10.9577L2.5 11.8327L3.375 10.9577L4.25 11.8327L5.125 10.9577L6 11.8327L6.875 10.9577L7.75 11.8327L8.625 10.9577L9.5 11.8327L10.375 10.9577L11.25 11.8327V0.166016L10.375 1.04102ZM10.0833 10.1352H1.91667V1.86352H10.0833V10.1352ZM2.5 7.74935H9.5V8.91602H2.5V7.74935ZM2.5 5.41602H9.5V6.58268H2.5V5.41602ZM2.5 3.08268H9.5V4.24935H2.5V3.08268Z" fill="#FEFEFE"/>
</svg>
