<svg width="12" height="12" viewBox="0 0 12 12" fill="none" xmlns="http://www.w3.org/2000/svg">
<g clip-path="url(#clip0_444_859)">
<path d="M12 3.83407C12.0004 3.73987 11.9629 3.6495 11.8961 3.58315L8.88952 0.600045C8.75208 0.463685 8.5302 0.464084 8.3933 0.601029L7.5196 1.47473C7.00917 1.42638 6.48844 1.48012 6.00017 1.63169C5.51114 1.47994 4.99144 1.42624 4.48039 1.47473L3.60671 0.601052C3.46978 0.464131 3.24795 0.463685 3.11049 0.600068L0.103948 3.58315C0.0370806 3.6495 -0.000349108 3.7399 2.45436e-06 3.83407C0.000354017 3.92824 0.0385337 4.01836 0.105893 4.08417L0.99987 4.95757C0.95051 5.48238 1.00878 6.01828 1.17066 6.51832C1.27294 6.83423 1.41305 7.13055 1.58892 7.4054L1.43274 7.56159C1.02153 7.9728 1.02153 8.6419 1.43274 9.05313C1.52979 9.15021 1.64133 9.22404 1.76035 9.2753C1.53012 9.67804 1.58649 10.2012 1.92994 10.5447C2.27539 10.8901 2.79785 10.9448 3.19894 10.7148C3.25109 10.8353 3.32585 10.9462 3.4215 11.0419C3.83302 11.4534 4.50214 11.4528 4.91304 11.0419L5.00567 10.9492L5.22033 11.1639C5.23214 11.1757 5.24461 11.1866 5.2576 11.1963C5.45639 11.3934 5.71988 11.502 6.00005 11.502C6.28076 11.502 6.54471 11.393 6.7437 11.1952C6.94024 11.0047 6.87059 11.0731 6.99443 10.9493C7.11649 11.0713 7.362 11.3508 7.83284 11.3508C8.11456 11.3508 8.3794 11.2411 8.5786 11.0419C8.67432 10.9462 8.74913 10.8352 8.80128 10.7146C9.20548 10.9453 9.72776 10.8871 10.0702 10.5447C10.4136 10.2013 10.47 9.67802 10.2398 9.2753C10.3588 9.22406 10.4703 9.15021 10.5673 9.05313C10.9796 8.64096 10.9796 7.97381 10.5673 7.56159L10.4105 7.40472C10.8701 6.68301 11.0806 5.81421 11.0002 4.95757L11.8942 4.08415C11.9615 4.01836 11.9996 3.92826 12 3.83407ZM1.92992 8.55597C1.79283 8.41889 1.79283 8.19586 1.92989 8.05877L2.02416 7.96451C2.05395 7.99631 2.08416 8.02779 2.11514 8.05877L2.51972 8.46335L2.4271 8.55597C2.29001 8.69304 2.067 8.69306 1.92992 8.55597ZM2.92428 10.0475C2.78686 10.1849 2.56451 10.1849 2.4271 10.0475C2.28968 9.9101 2.28968 9.68777 2.4271 9.55033L3.0169 8.96053L3.5141 9.45771L2.92428 10.0475ZM4.41582 10.5447C4.27871 10.6818 4.0557 10.6818 3.91864 10.5447C3.85224 10.4783 3.81565 10.39 3.81565 10.2961C3.81565 10.2022 3.85224 10.114 3.91864 10.0475C3.91866 10.0475 3.91866 10.0475 3.91868 10.0475L4.01126 9.95491L4.50844 10.4521L4.41582 10.5447ZM10.0701 8.55602C9.93298 8.69308 9.70997 8.69308 9.57291 8.55602C9.57291 8.55602 9.57291 8.55602 9.57289 8.556L7.08699 6.07005C6.94971 5.93276 6.7271 5.93276 6.58981 6.07005C6.45251 6.20735 6.45251 6.42994 6.58981 6.56723L9.57291 9.55033C9.71 9.68742 9.71 9.91045 9.57291 10.0475C9.43585 10.1846 9.21282 10.1846 9.07571 10.0475C8.91134 9.88315 6.26815 7.23996 6.0926 7.06441C5.95533 6.92712 5.73272 6.92712 5.59543 7.06441C5.45813 7.20171 5.45813 7.42429 5.59543 7.56159L8.08156 10.0477C8.21871 10.1851 8.21876 10.4073 8.08135 10.5447C7.94396 10.6821 7.72156 10.6821 7.58414 10.5447L5.09825 8.05879C4.96097 7.9215 4.73836 7.9215 4.60107 8.05879C4.46377 8.19609 4.46377 8.41868 4.60107 8.55597L6.49718 10.4521C6.38304 10.5662 6.43451 10.5156 6.25252 10.692C6.25118 10.6933 6.24989 10.6946 6.24858 10.6959C6.18218 10.7623 6.09387 10.7988 6 10.7988C5.90609 10.7988 5.81782 10.7623 5.75145 10.6959C5.75014 10.6946 5.74882 10.6933 5.74749 10.692C5.53835 10.4894 2.8366 7.78586 2.61232 7.56161C1.90191 6.85122 1.57568 5.8725 1.71724 4.8764C1.73302 4.76552 1.69498 4.65375 1.61487 4.57547L0.852659 3.83079L3.35712 1.34583L4.1037 2.0924C4.18186 2.17059 4.2923 2.20746 4.40175 2.19187C4.57444 2.16733 4.74903 2.15756 4.92317 2.16166C4.74392 2.28841 4.57449 2.4311 4.41584 2.58977C3.98192 3.02372 2.80786 4.19775 2.4271 4.57851C2.0149 4.99073 2.01483 5.65783 2.4271 6.07008C2.63269 6.27569 2.90278 6.37849 3.17285 6.37849C3.44295 6.37849 3.71304 6.27569 3.91864 6.07008L5.32908 4.65965C5.78904 4.82353 6.28062 4.84331 6.74166 4.73039L10.0701 8.05884C10.2075 8.19626 10.2075 8.41858 10.0701 8.55602ZM10.3851 4.57544C10.305 4.65372 10.267 4.76547 10.2828 4.87638C10.3817 5.57266 10.2424 6.28776 9.89843 6.89276L7.44349 4.43782C7.60552 4.33847 7.75777 4.21964 7.89612 4.08131C8.03342 3.94401 8.03342 3.72143 7.89612 3.58413C7.75885 3.44683 7.53624 3.44683 7.39894 3.58413C6.87296 4.11012 6.06889 4.24826 5.39803 3.92782C5.26367 3.86362 5.10326 3.89109 4.99791 3.99647L3.42148 5.5729C3.28442 5.70998 3.06143 5.71001 2.92428 5.5729C2.85788 5.5065 2.82129 5.41821 2.82129 5.32429C2.82129 5.2304 2.85788 5.14212 2.92428 5.07572C3.33549 4.66451 4.50617 3.49383 4.91302 3.08697C4.91304 3.08695 4.91307 3.0869 4.91311 3.08688C5.61891 2.38115 6.59656 2.04954 7.59828 2.19187C7.70764 2.20744 7.81817 2.17059 7.89633 2.0924L8.64291 1.34583L11.1473 3.83079L10.3851 4.57544Z" fill="#4F4F4F"/>
</g>
<defs>
<clipPath id="clip0_444_859">
<rect width="12" height="12" fill="white"/>
</clipPath>
</defs>
</svg>
