<svg width="16" height="16" viewBox="0 0 16 16" fill="none" xmlns="http://www.w3.org/2000/svg">
<g clip-path="url(#clip0_1449_6844)">
<path d="M8.33333 6.66651C8.33333 5.56651 7.43333 4.66651 6.33333 4.66651C5.23333 4.66651 4.33333 5.56651 4.33333 6.66651C4.33333 7.76651 5.23333 8.66651 6.33333 8.66651C7.43333 8.66651 8.33333 7.76651 8.33333 6.66651ZM6.33333 7.33318C5.96666 7.33318 5.66666 7.03318 5.66666 6.66651C5.66666 6.29984 5.96666 5.99984 6.33333 5.99984C6.69999 5.99984 6.99999 6.29984 6.99999 6.66651C6.99999 7.03318 6.69999 7.33318 6.33333 7.33318ZM10.6667 8.66651C11.4067 8.66651 12 8.07318 12 7.33318C12 6.59318 11.4067 5.99984 10.6667 5.99984C9.92666 5.99984 9.32666 6.59318 9.33333 7.33318C9.33333 8.07318 9.92666 8.66651 10.6667 8.66651ZM7.99333 1.33984C4.31333 1.33984 1.32666 4.32651 1.32666 8.00651C1.32666 11.6865 4.31333 14.6732 7.99333 14.6732C11.6733 14.6732 14.66 11.6865 14.66 8.00651C14.66 4.32651 11.6733 1.33984 7.99333 1.33984ZM3.89333 11.4132C4.34666 11.0532 5.40666 10.6732 6.33333 10.6732C6.37999 10.6732 6.43333 10.6798 6.48666 10.6798C6.64666 10.2532 6.93333 9.81984 7.35333 9.43984C6.97999 9.37318 6.62666 9.33318 6.33333 9.33318C5.46666 9.33318 4.07333 9.63318 3.17999 10.2865C2.84666 9.59318 2.65999 8.81984 2.65999 7.99984C2.65999 5.05984 5.05333 2.66651 7.99333 2.66651C10.9333 2.66651 13.3267 5.05984 13.3267 7.99984C13.3267 8.79984 13.1467 9.55984 12.8267 10.2465C12.16 9.85318 11.2533 9.66651 10.6667 9.66651C9.65333 9.66651 7.66666 10.2065 7.66666 11.4665V13.3198C6.15333 13.2332 4.80666 12.5132 3.89333 11.4132Z" fill="white"/>
</g>
<defs>
<clipPath id="clip0_1449_6844">
<rect width="16" height="16" fill="white"/>
</clipPath>
</defs>
</svg>
