<svg width="19" height="19" viewBox="0 0 19 19" fill="none" xmlns="http://www.w3.org/2000/svg">
<path d="M8.42277 6.20111C8.45751 6.27058 8.49224 6.34005 8.52698 6.39215C8.56171 6.44426 8.61382 6.49636 8.64855 6.54846C8.70065 6.60056 8.75276 6.65266 8.82223 6.70477C8.87433 6.7395 8.9438 6.7916 9.03064 6.80897C9.10011 6.84371 9.16958 6.86107 9.25641 6.87844C9.34325 6.89581 9.41272 6.89581 9.48219 6.89581C9.55166 6.89581 9.6385 6.89581 9.70797 6.87844C9.77744 6.86107 9.84691 6.84371 9.89901 6.80897H9.91638C9.98585 6.77424 10.0553 6.7395 10.1248 6.6874C10.1769 6.65267 10.229 6.60056 10.2811 6.54846L10.2985 6.53109C10.3506 6.47899 10.3853 6.42689 10.42 6.37479C10.4548 6.32268 10.4895 6.27058 10.5069 6.20111C10.5069 6.18374 10.5069 6.18374 10.5242 6.16638C10.559 6.09691 10.5763 6.01007 10.5937 5.9406C10.6111 5.87113 10.6111 5.78429 10.6111 5.71482C10.6111 5.64535 10.6111 5.55852 10.5937 5.48905C10.5763 5.41958 10.559 5.35011 10.5242 5.26327C10.4721 5.1417 10.4027 5.03749 10.3158 4.95065C10.2985 4.93329 10.2985 4.93329 10.2811 4.91592C10.229 4.86382 10.1769 4.82908 10.1074 4.77698C10.0379 4.74224 9.98585 4.70751 9.91638 4.67277C9.84691 4.63804 9.77744 4.62067 9.70797 4.60331C9.62113 4.58594 9.55166 4.58594 9.48219 4.58594C9.41272 4.58594 9.32588 4.58594 9.25641 4.60331C9.18694 4.62067 9.11747 4.63804 9.048 4.67277H9.03064C8.96117 4.70751 8.8917 4.74224 8.83959 4.77698C8.77012 4.82908 8.71802 4.86382 8.66592 4.91592C8.61382 4.96802 8.56171 5.02012 8.52698 5.07223C8.49224 5.12433 8.45751 5.1938 8.42277 5.26327C8.38804 5.33274 8.37067 5.40221 8.3533 5.47168C8.33594 5.55852 8.33594 5.62798 8.33594 5.69745C8.33594 5.76692 8.33594 5.85376 8.3533 5.92323C8.37067 6.06217 8.40541 6.13164 8.42277 6.20111Z" fill="black"/>
<path d="M10.8371 12.5562H10.4376V8.30116C10.4376 8.05802 10.2466 7.84961 9.98607 7.84961H8.16249C7.91935 7.84961 7.71094 8.04065 7.71094 8.30116V9.23901C7.71094 9.48215 7.90198 9.69056 8.16249 9.69056H8.52721V12.5736H8.16249C7.91935 12.5736 7.71094 12.7646 7.71094 13.0251V13.963C7.71094 14.2061 7.90198 14.4145 8.16249 14.4145H10.8371C11.0802 14.4145 11.2886 14.2235 11.2886 13.963V13.0251C11.2886 12.7646 11.0802 12.5562 10.8371 12.5562Z" fill="black"/>
<path d="M9.5 0C4.25503 0 0 4.25503 0 9.5C0 14.745 4.25503 19 9.5 19C14.745 19 19 14.745 19 9.5C19 4.25503 14.745 0 9.5 0ZM9.5 17.7495C4.94973 17.7495 1.25046 14.0503 1.25046 9.5C1.25046 4.94973 4.94973 1.25046 9.5 1.25046C14.0503 1.25046 17.7495 4.94973 17.7495 9.5C17.7495 14.0503 14.0503 17.7495 9.5 17.7495Z" fill="black"/>
</svg>
